<svg width="13" height="13" viewBox="0 0 13 13" fill="none" xmlns="http://www.w3.org/2000/svg">
<g clip-path="url(#clip0_192_3696)">
<path d="M10.0026 0H2.99744C1.342 0 0 1.342 0 2.99744V10.0026C0 11.658 1.342 13 2.99744 13H10.0026C11.658 13 13 11.658 13 10.0026V2.99744C13 1.342 11.658 0 10.0026 0Z" fill="url(#paint0_linear_192_3696)"/>
<path d="M8.75882 2.23866C9.29053 2.24081 9.79985 2.45405 10.1758 2.83194C10.5518 3.20982 10.764 3.72172 10.7661 4.25612V8.74388C10.764 9.27828 10.5518 9.79018 10.1758 10.1681C9.79985 10.5459 9.29053 10.7592 8.75882 10.7613H4.24127C3.70957 10.7592 3.20024 10.5459 2.82427 10.1681C2.44829 9.79018 2.23612 9.27828 2.23398 8.74388V4.25612C2.23612 3.72172 2.44829 3.20982 2.82427 2.83194C3.20024 2.45405 3.70957 2.24081 4.24127 2.23866H8.75882ZM8.75882 1.3003H4.24127C2.62369 1.3003 1.30005 2.63216 1.30005 4.25642V8.74388C1.30005 10.3697 2.6252 11.7 4.24127 11.7H8.75882C10.3764 11.7 11.7 10.3681 11.7 8.74388V4.25612C11.7 2.63035 10.3764 1.3 8.75882 1.3V1.3003Z" fill="white"/>
<path d="M6.50003 4.80694C6.83488 4.80694 7.16222 4.90624 7.44064 5.09227C7.71906 5.27831 7.93606 5.54273 8.06421 5.85209C8.19235 6.16146 8.22588 6.50188 8.16055 6.8303C8.09522 7.15872 7.93397 7.46039 7.6972 7.69717C7.46042 7.93395 7.15875 8.0952 6.83032 8.16052C6.5019 8.22585 6.16149 8.19232 5.85212 8.06418C5.54275 7.93604 5.27834 7.71903 5.0923 7.44061C4.90626 7.16219 4.80697 6.83485 4.80697 6.5C4.80751 6.05114 4.98606 5.62082 5.30345 5.30343C5.62084 4.98603 6.05116 4.80748 6.50003 4.80694ZM6.50003 3.9C5.98579 3.9 5.48311 4.05249 5.05554 4.33818C4.62798 4.62387 4.29473 5.02993 4.09794 5.50502C3.90115 5.98011 3.84966 6.50288 3.94998 7.00723C4.05031 7.51158 4.29793 7.97486 4.66155 8.33848C5.02516 8.70209 5.48844 8.94972 5.99279 9.05004C6.49714 9.15036 7.01991 9.09887 7.495 8.90208C7.97009 8.7053 8.37615 8.37205 8.66185 7.94448C8.94754 7.51691 9.10002 7.01423 9.10002 6.5C9.10002 5.81044 8.8261 5.14912 8.3385 4.66152C7.85091 4.17393 7.18959 3.9 6.50003 3.9Z" fill="white"/>
</g>
<defs>
<linearGradient id="paint0_linear_192_3696" x1="8.52019" y1="13.5456" x2="4.47981" y2="-0.545651" gradientUnits="userSpaceOnUse">
<stop stop-color="#FFDB73"/>
<stop offset="0.08" stop-color="#FDAD4E"/>
<stop offset="0.15" stop-color="#FB832E"/>
<stop offset="0.19" stop-color="#FA7321"/>
<stop offset="0.23" stop-color="#F6692F"/>
<stop offset="0.37" stop-color="#E84A5A"/>
<stop offset="0.48" stop-color="#E03675"/>
<stop offset="0.55" stop-color="#DD2F7F"/>
<stop offset="0.68" stop-color="#B43D97"/>
<stop offset="0.97" stop-color="#4D60D4"/>
<stop offset="1" stop-color="#4264DB"/>
</linearGradient>
<clipPath id="clip0_192_3696">
<rect width="13" height="13" fill="white"/>
</clipPath>
</defs>
</svg>
