<svg width="13" height="13" viewBox="0 0 13 13" fill="none" xmlns="http://www.w3.org/2000/svg">
<g clip-path="url(#clip0_192_3711)">
<path d="M11.375 13H1.625C0.728 13 0 12.272 0 11.375V1.625C0 0.728 0.728 0 1.625 0H11.375C12.272 0 13 0.728 13 1.625V11.375C13 12.272 12.272 13 11.375 13Z" fill="#1DA1F2"/>
<path d="M4.99205 9.802C8.0568 9.802 9.7338 7.2605 9.7338 5.06025C9.7338 4.98875 9.7338 4.91725 9.73055 4.84575C10.0555 4.61175 10.3383 4.316 10.5625 3.98125C10.2635 4.1145 9.9418 4.20225 9.6038 4.2445C9.9483 4.03975 10.2115 3.7115 10.3383 3.3215C10.0165 3.51325 9.65905 3.64975 9.2788 3.7245C8.9733 3.3995 8.54105 3.198 8.0633 3.198C7.14355 3.198 6.39605 3.9455 6.39605 4.86525C6.39605 4.99525 6.4123 5.122 6.4383 5.2455C5.0538 5.17725 3.8253 4.511 3.00305 3.5035C2.86005 3.7505 2.7788 4.0365 2.7788 4.342C2.7788 4.9205 3.07455 5.43075 3.5198 5.72975C3.2468 5.72 2.99005 5.64525 2.7658 5.52175V5.5445C2.7658 6.3505 3.34105 7.0265 4.10155 7.17925C3.9618 7.21825 3.81555 7.23775 3.6628 7.23775C3.55555 7.23775 3.45155 7.228 3.3508 7.2085C3.56205 7.8715 4.17955 8.3525 4.90755 8.3655C4.33555 8.814 3.6173 9.0805 2.8373 9.0805C2.70405 9.0805 2.5708 9.074 2.4408 9.05775C3.1753 9.52575 4.0528 9.802 4.99205 9.802Z" fill="white"/>
</g>
<defs>
<clipPath id="clip0_192_3711">
<rect width="13" height="13" fill="white"/>
</clipPath>
</defs>
</svg>
