<svg width="13" height="13" viewBox="0 0 13 13" fill="none" xmlns="http://www.w3.org/2000/svg">
<g clip-path="url(#clip0_192_3715)">
<path d="M11.6054 0H1.39464C0.6244 0 0 0.6244 0 1.39464V11.6054C0 12.3756 0.6244 13 1.39464 13H11.6054C12.3756 13 13 12.3756 13 11.6054V1.39464C13 0.6244 12.3756 0 11.6054 0Z" fill="#20A0E1"/>
<path fill-rule="evenodd" clip-rule="evenodd" d="M8.56705 4.98085C8.61685 4.88123 8.71647 4.88123 8.71647 4.7318C8.51724 4.7318 8.36781 4.88123 8.2682 4.93104L4.93103 7.02299L5.57854 9.06514C5.67816 8.96552 5.67816 8.8659 5.67816 8.66667C5.67816 8.56705 5.72797 8.36782 5.72797 8.2682V7.91954C5.77777 7.86973 5.77777 7.81993 5.77777 7.72031C5.77777 7.6705 5.77777 7.62069 5.77777 7.57088C5.82758 7.47127 5.87739 7.52108 5.9272 7.42146C6.67433 6.62452 7.7203 5.72797 8.56705 4.98085Z" fill="#CCD8E6"/>
<path fill-rule="evenodd" clip-rule="evenodd" d="M3.28736 6.42529L4.93104 7.02299L8.41763 4.83142C8.51725 4.78161 8.61687 4.7318 8.71648 4.7318C8.71648 4.88123 8.51725 5.03065 8.41763 5.13027C7.6705 5.77778 6.42529 6.72414 5.77778 7.47127L6.37549 7.91954C6.4751 7.91954 6.72414 8.16858 6.77395 8.21839C6.87357 8.2682 7.27204 8.56705 7.32185 8.66667C7.42146 8.66667 7.42146 8.71648 7.47127 8.76628L7.96936 9.11494C8.16859 9.26437 8.36782 9.51341 8.71648 9.26437L9.81227 4.28353C9.96169 3.43678 9.56323 3.58621 9.01533 3.78544L3.43679 6.02682C3.23755 6.12644 3.03832 6.37548 3.28736 6.42529Z" fill="#FEFEFE"/>
<path fill-rule="evenodd" clip-rule="evenodd" d="M5.57849 9.06513L5.6283 9.11494C5.72792 9.11494 5.82753 9.06513 5.92715 8.96552L6.77389 8.21839C6.72409 8.16858 6.47504 7.91954 6.37543 7.91954L5.77772 7.47126L5.57849 9.06513Z" fill="#ABBDD5"/>
<path fill-rule="evenodd" clip-rule="evenodd" d="M12.9999 6.92337L9.7624 3.68583C9.86201 3.78544 9.86201 3.93487 9.8122 4.28353L8.71642 9.26437C8.36776 9.51341 8.16853 9.26437 7.96929 9.11494L7.47121 8.76629C7.4214 8.71648 7.4214 8.66667 7.32178 8.66667C7.27197 8.56705 6.87351 8.2682 6.77389 8.21839L5.92715 8.96552C5.82753 9.01533 5.72791 9.06514 5.6283 9.11494L9.56316 13H11.6053L12.9999 11.6054V6.92337Z" fill="#1A82B7"/>
<path fill-rule="evenodd" clip-rule="evenodd" d="M3.28735 6.42529L5.42912 8.61686L4.93103 7.02299L3.28735 6.42529Z" fill="#1A82B7"/>
</g>
<defs>
<clipPath id="clip0_192_3715">
<rect width="13" height="13" fill="white"/>
</clipPath>
</defs>
</svg>
