<svg width="13" height="13" viewBox="0 0 13 13" fill="none" xmlns="http://www.w3.org/2000/svg">
<path d="M11.2519 0H1.74807C0.782638 0 0 0.782638 0 1.74807V11.2519C0 12.2174 0.782638 13 1.74807 13H11.2519C12.2174 13 13 12.2174 13 11.2519V1.74807C13 0.782638 12.2174 0 11.2519 0Z" fill="black"/>
<path d="M9.20439 4.88867V4.59277C9.20439 4.59277 8.53936 4.55088 8.05273 4.02441C8.36855 4.60127 8.89648 4.81367 9.20439 4.88867Z" fill="#80C7CF"/>
<path d="M4.01972 7.03555C4.46796 6.14463 5.26308 5.98086 5.66034 5.9583V5.62109C5.66034 5.62109 4.39061 5.47461 3.77567 6.69688C3.77567 6.69688 3.13495 7.92412 4.02177 8.92344C3.51171 8.00527 4.01972 7.03555 4.01972 7.03555Z" fill="#80C7CF"/>
<path d="M5.88794 9.00108C6.88403 8.83115 6.88022 8.00498 6.88022 8.00498V3.35791H7.67124C7.63427 3.24709 7.60596 3.13357 7.58657 3.01836H6.63765V7.66631C6.63765 7.66631 6.66401 8.58125 5.64536 8.6624C5.64536 8.6624 5.20181 8.69727 4.87134 8.40723C5.15229 9.05938 5.88794 9.00108 5.88794 9.00108Z" fill="#80C7CF"/>
<path d="M7.8292 3.35791H7.67188C7.749 3.60507 7.87896 3.83249 8.05273 4.02441C7.94058 3.8167 7.86497 3.59125 7.8292 3.35791Z" fill="#E03855"/>
<path d="M4.521 7.54502C4.53564 7.97861 4.68594 8.24287 4.87256 8.40605C4.80421 8.24065 4.76774 8.06381 4.76504 7.88486C4.76504 7.88486 4.78906 6.92217 5.90527 6.95469V5.95859C5.82456 5.95217 5.74348 5.95168 5.6627 5.95713V6.61367C4.54531 6.58262 4.521 7.54502 4.521 7.54502Z" fill="#E03855"/>
<path d="M9.20439 4.88867V5.67676C8.12861 5.78984 7.58662 4.9001 7.58662 4.9001V7.64258C7.52187 8.58916 7.03672 8.99346 7.03672 8.99346C5.73711 10.1946 4.46445 9.30898 4.46445 9.30898C4.30205 9.19904 4.15377 9.06956 4.02295 8.92344C4.16328 9.17627 4.38066 9.425 4.70703 9.64853C4.70703 9.64853 5.96885 10.5787 7.2793 9.3333C7.2793 9.3333 7.7873 8.90703 7.8292 7.98242V5.24023C7.8292 5.24023 8.37119 6.12998 9.44697 6.0166V4.93262C9.36508 4.92436 9.28397 4.90967 9.20439 4.88867Z" fill="#E03855"/>
<path d="M4.46447 9.3084C4.46447 9.3084 5.75734 10.2005 7.03674 8.99287C7.03674 8.99287 7.55822 8.59912 7.58664 7.64199V4.9001C7.58664 4.9001 8.12863 5.78984 9.20441 5.67676V4.88867C8.8965 4.8125 8.36857 4.6001 8.05275 4.02324C7.87897 3.83132 7.74902 3.60389 7.67189 3.35674H6.88088V8.00615C6.88088 8.00615 6.88351 8.83115 5.88859 9.00225C5.88859 9.00225 5.15353 9.06084 4.87199 8.40723C4.68654 8.24404 4.53625 7.97978 4.52043 7.54619C4.52043 7.54619 4.54474 6.58379 5.66095 6.61602V5.9583C5.26252 5.98174 4.4674 6.14463 4.02033 7.03555C4.02033 7.03555 3.51349 8.00527 4.02355 8.92285C4.15419 9.06893 4.30227 9.19842 4.46447 9.3084Z" fill="white"/>
</svg>
