<svg width="30" height="30" viewBox="0 0 30 30" fill="none" xmlns="http://www.w3.org/2000/svg">
<path d="M15 0C6.71572 0 0 6.71572 0 15C0 23.2843 6.71572 30 15 30C23.2843 30 30 23.2843 30 15C30 6.71572 23.2843 0 15 0ZM22.8125 18.3105C22.8124 19.5045 22.3381 20.6496 21.4938 21.4938C20.6496 22.3381 19.5045 22.8124 18.3105 22.8125H11.6895C10.4955 22.8124 9.35041 22.3381 8.50614 21.4938C7.66186 20.6496 7.18752 19.5045 7.18746 18.3105V11.6895C7.18751 10.4955 7.66184 9.3504 8.50612 8.50614C9.3504 7.66187 10.4955 7.18755 11.6895 7.18752H18.3105C19.5045 7.18757 20.6496 7.66189 21.4938 8.50616C22.3381 9.35042 22.8124 10.4955 22.8125 11.6895V18.3105Z" fill="white"/>
<path d="M18.25 9H11.75C11.3889 8.99999 11.0313 9.07112 10.6976 9.20932C10.364 9.34752 10.0608 9.55008 9.80545 9.80545C9.55008 10.0608 9.34752 10.364 9.20932 10.6976C9.07112 11.0313 8.99999 11.3889 9 11.75V18.25C9 18.9793 9.28973 19.6788 9.80547 20.1945C10.0608 20.4499 10.364 20.6525 10.6976 20.7907C11.0313 20.9289 11.3889 21 11.75 21H18.25C18.9794 21 19.6788 20.7102 20.1946 20.1945C20.7103 19.6788 21 18.9793 21 18.25V11.75C21 11.3889 20.9289 11.0313 20.7907 10.6976C20.6525 10.364 20.4499 10.0608 20.1946 9.80546C19.9392 9.5501 19.6361 9.34754 19.3024 9.20933C18.9688 9.07113 18.6112 9 18.25 9ZM15 18.7829C14.2518 18.7829 13.5205 18.561 12.8984 18.1453C12.2763 17.7297 11.7914 17.1389 11.5051 16.4476C11.2188 15.7564 11.1439 14.9958 11.2898 14.262C11.4358 13.5282 11.7961 12.8542 12.3251 12.3251C12.8542 11.7961 13.5282 11.4358 14.262 11.2898C14.9958 11.1439 15.7564 11.2188 16.4477 11.5051C17.1389 11.7914 17.7297 12.2763 18.1454 12.8984C18.561 13.5204 18.7829 14.2518 18.7829 15C18.7829 15.4968 18.6851 15.9887 18.495 16.4476C18.3048 16.9066 18.0262 17.3236 17.6749 17.6749C17.3237 18.0262 16.9066 18.3048 16.4477 18.4949C15.9887 18.685 15.4968 18.7829 15 18.7829ZM18.9406 11.9899C18.7626 11.9899 18.5886 11.9371 18.4406 11.8383C18.2926 11.7394 18.1772 11.5988 18.1091 11.4344C18.041 11.2699 18.0231 11.089 18.0578 10.9144C18.0926 10.7398 18.1783 10.5794 18.3041 10.4536C18.43 10.3277 18.5904 10.242 18.7649 10.2072C18.9395 10.1725 19.1205 10.1903 19.2849 10.2584C19.4494 10.3266 19.59 10.4419 19.6889 10.5899C19.7878 10.7379 19.8405 10.9119 19.8405 11.0899C19.8405 11.3286 19.7457 11.5575 19.577 11.7263C19.4082 11.8951 19.1793 11.9899 18.9406 11.9899Z" fill="white"/>
<path d="M15 12C14.4067 12 13.8266 12.1759 13.3333 12.5056C12.8399 12.8352 12.4554 13.3038 12.2284 13.8519C12.0013 14.4001 11.9419 15.0033 12.0576 15.5853C12.1734 16.1672 12.4591 16.7018 12.8787 17.1213C13.2982 17.5409 13.8328 17.8266 14.4147 17.9424C14.9967 18.0581 15.5999 17.9987 16.1481 17.7716C16.6962 17.5446 17.1648 17.1601 17.4944 16.6667C17.8241 16.1734 18 15.5933 18 15C18 14.2044 17.6839 13.4413 17.1213 12.8787C16.5587 12.3161 15.7957 12 15 12Z" fill="white"/>
</svg>
