<svg width="13" height="15" viewBox="0 0 13 15" fill="none" xmlns="http://www.w3.org/2000/svg">
<path d="M12.8533 4.65352C12.8533 4.64942 12.8533 4.64532 12.8492 4.64532C12.8492 4.63711 12.8451 4.63301 12.8451 4.62481C12.8451 4.62071 12.841 4.6125 12.841 4.6084C12.841 4.6043 12.8369 4.6002 12.8369 4.5961C12.8287 4.57559 12.8205 4.55918 12.8082 4.54278L10.1422 0.625784C10.0848 0.539652 9.99043 0.490433 9.88789 0.490433H7.2793H5.7248H3.11621C3.01367 0.490433 2.91934 0.539652 2.86191 0.625784L0.195899 4.54278C0.183594 4.55918 0.175391 4.57969 0.167187 4.5961C0.167187 4.6002 0.163086 4.6043 0.163086 4.6084C0.158984 4.6125 0.158984 4.62071 0.158984 4.62481C0.158984 4.63301 0.154883 4.63711 0.154883 4.64532C0.154883 4.64942 0.154883 4.65352 0.150781 4.65352C0.14668 4.67403 0.142578 4.69453 0.142578 4.71504V14.202C0.142578 14.3701 0.282031 14.5096 0.450195 14.5096H12.5539C12.7221 14.5096 12.8615 14.3701 12.8615 14.202V4.71504C12.8574 4.69453 12.8574 4.67403 12.8533 4.65352ZM11.9674 4.40743H7.99297L7.61973 1.10567H9.71973L11.9674 4.40743ZM5.58535 5.02266H7.41055V7.27852L6.67637 6.76172C6.62305 6.72481 6.56152 6.7043 6.5 6.7043C6.43848 6.7043 6.37695 6.72481 6.32363 6.76172L5.58945 7.27852V5.02266H5.58535ZM7.00039 1.10567L7.37363 4.40743H5.62227L5.99551 1.10567H7.00039ZM3.28027 1.10567H5.38027L5.00703 4.40743H1.03262L3.28027 1.10567ZM12.2422 13.8943H0.757812V5.02266H4.97422V7.86914C4.97422 7.98399 5.03984 8.09063 5.13828 8.14395C5.24082 8.19727 5.36387 8.18907 5.4582 8.12344L6.5 7.38926L7.5418 8.12344C7.59512 8.16036 7.65664 8.18086 7.71816 8.18086C7.76738 8.18086 7.8166 8.16856 7.86172 8.14805C7.96426 8.09473 8.02578 7.98809 8.02578 7.87325V5.02676H12.2422V13.8943Z" fill="#3E3E3E"/>
<path d="M4.24404 10.5516H2.06201C1.89385 10.5516 1.75439 10.691 1.75439 10.8592C1.75439 11.0273 1.89385 11.1668 2.06201 11.1668H4.24404C4.41221 11.1668 4.55166 11.0273 4.55166 10.8592C4.55166 10.691 4.41221 10.5516 4.24404 10.5516Z" fill="#3E3E3E"/>
<path d="M3.15303 11.8436H2.06201C1.89385 11.8436 1.75439 11.983 1.75439 12.1512C1.75439 12.3193 1.89385 12.4588 2.06201 12.4588H3.15303C3.32119 12.4588 3.46064 12.3193 3.46064 12.1512C3.46064 11.983 3.32119 11.8436 3.15303 11.8436Z" fill="#3E3E3E"/>
</svg>
