<svg width="15" height="15" viewBox="0 0 15 15" fill="none" xmlns="http://www.w3.org/2000/svg">
<path fill-rule="evenodd" clip-rule="evenodd" d="M3.90109 0.775036C0.968821 1.64618 0.476683 1.85982 0.17855 2.39066C-0.00112538 2.71061 -0.0117033 2.78646 0.0120783 3.58778C0.03601 4.39387 0.0507142 4.46283 0.265499 4.78145C0.621474 5.30955 1.03619 5.58402 3.42936 6.8757C7.89716 9.28708 7.67352 9.15533 7.54636 9.30203C7.3333 9.54769 7.20202 10.0087 7.20202 10.5111V11.0129L4.59504 9.60765C1.5014 7.94005 1.38534 7.87273 1.06267 7.55779C0.702572 7.20637 0.600168 6.95336 0.600168 6.41547C0.600168 5.986 0.582313 5.93175 0.414866 5.85214C0.10593 5.70528 0 5.87171 0 6.5037C0 7.70849 0.327917 8.04652 2.77578 9.36513C7.80091 12.072 7.65897 11.9901 7.54981 12.1212C7.32985 12.3853 7.24523 12.6585 7.20562 13.232L7.16451 13.8272L4.42624 12.3472C2.92019 11.5332 1.51707 10.7461 1.30829 10.598C0.811052 10.2454 0.600168 9.85229 0.600168 9.27784C0.600168 8.8847 0.579987 8.82716 0.414866 8.74864C0.112081 8.60468 0 8.77009 0 9.36106C0 10.1554 0.279453 10.6583 1.01278 11.1837C1.52458 11.5503 7.87758 14.9562 8.12808 14.9981C8.29282 15.0258 9.33329 14.7486 11.5475 14.0873C13.2978 13.5644 14.7917 13.1022 14.8671 13.0601C15.0419 12.9626 15.045 12.626 14.8721 12.5294C14.7995 12.4889 14.6529 12.4731 14.5463 12.4943C14.3828 12.5269 14.3361 12.4923 14.247 12.2718C14.115 11.9451 14.1096 10.9934 14.2379 10.6764C14.3078 10.5038 14.4214 10.4068 14.6506 10.3241C14.8996 10.2342 14.9715 10.1671 14.9893 10.0076C15.0417 9.53642 15.0073 9.54213 11.5075 10.591C9.04648 11.3286 8.1962 11.5542 8.09379 11.497C7.79153 11.3282 7.72386 10.1747 7.99124 9.74896C8.16544 9.47152 8.6482 9.28544 11.0656 8.56413C12.3034 8.19479 13.3669 7.87719 13.4288 7.8584C13.5242 7.82936 13.5373 7.93097 13.5151 8.52734C13.4862 9.30102 13.5179 9.35832 13.912 9.24629C14.1248 9.18578 14.132 9.1684 14.1156 8.75741C14.1062 8.52303 14.1433 8.17318 14.198 7.98005C14.2864 7.66817 14.335 7.61447 14.6321 7.50041C14.8895 7.40161 14.9719 7.32756 14.9893 7.17944C15.0018 7.07251 14.9577 6.94013 14.8899 6.88149C14.7854 6.79092 14.3121 6.91273 11.5547 7.74003C9.34252 8.40373 8.28157 8.68852 8.14946 8.65392C7.89919 8.58832 7.76708 8.10922 7.83437 7.51082C7.89521 6.96925 8.03377 6.74904 8.42741 6.56828C8.66223 6.46041 13.4034 5.00425 13.5198 5.00417C13.5316 5.00417 13.5293 5.30689 13.5146 5.67686C13.4998 6.04691 13.5177 6.38087 13.5543 6.41907C13.593 6.45939 13.7318 6.45649 13.8859 6.41203L14.1511 6.3357L14.1223 5.88517C14.0913 5.40169 14.231 4.85629 14.41 4.76078C14.4686 4.72955 14.628 4.66082 14.7644 4.60797C14.9771 4.52562 15.0089 4.47967 14.9894 4.28239C14.9647 4.03321 15.4407 4.28286 8.2178 0.730492C7.39422 0.325373 6.66839 -0.00326347 6.60485 2.44579e-05C6.54131 0.00331238 5.32462 0.352067 3.90109 0.775036ZM10.2054 2.43364C12.1433 3.388 13.7285 4.18939 13.7282 4.2146C13.7279 4.2398 12.9092 4.50299 11.909 4.79938C8.0256 5.94999 7.7517 6.06092 7.4231 6.61572C7.29414 6.83343 7.24238 7.06069 7.2168 7.521C7.19812 7.85895 7.16848 8.13552 7.15108 8.13552C7.00651 8.13552 1.35285 4.99352 1.11489 4.78098C0.719376 4.42769 0.599868 4.12058 0.601293 3.46057C0.602644 2.79687 0.699496 2.59475 1.12532 2.36686C1.44776 2.19432 6.26958 0.715931 6.54813 0.704188C6.62173 0.701057 8.26754 1.47936 10.2054 2.43364ZM5.22056 1.86216C3.67993 2.32255 3.47715 2.43231 3.64655 2.71436C3.69186 2.78975 3.79546 2.86177 3.87679 2.87453C3.99915 2.89379 5.81675 2.39927 6.73374 2.09733C7.06368 1.98867 7.18259 1.75351 7.00884 1.55318C6.93727 1.47067 6.84169 1.40593 6.79653 1.40937C6.75137 1.41289 6.04219 1.61659 5.22056 1.86216ZM6.75879 2.64446C5.25387 3.10101 5.05146 3.21334 5.22199 3.4972C5.2673 3.57259 5.36835 3.64336 5.44667 3.65455C5.525 3.66575 6.24737 3.48147 7.05197 3.24497C8.39695 2.84972 8.70244 2.7099 8.70244 2.48969C8.70244 2.37923 8.46582 2.18602 8.34076 2.19432C8.27144 2.19886 7.55957 2.40146 6.75879 2.64446ZM13.5149 11.3042C13.4964 11.7696 13.5243 12.0777 13.6084 12.3352C13.6745 12.5373 13.7136 12.718 13.6955 12.7368C13.6775 12.7557 12.4398 13.1374 10.945 13.5851C8.45892 14.3297 8.21315 14.3895 8.06138 14.2857C7.86145 14.149 7.76655 13.6224 7.8406 13.0604C7.90406 12.5793 8.2205 12.2664 8.83402 12.0783C9.07117 12.0056 10.2272 11.6546 11.4032 11.2983C12.5791 10.9419 13.5413 10.6482 13.5413 10.6455C13.5413 10.6428 13.5294 10.9393 13.5149 11.3042Z" fill="#3E3E3E"/>
</svg>
