<svg width="15" height="15" viewBox="0 0 15 15" fill="none" xmlns="http://www.w3.org/2000/svg">
<path fill-rule="evenodd" clip-rule="evenodd" d="M3.26586 0.0345541C2.13367 0.234983 1.23076 0.804724 0.642095 1.69018C0.188651 2.3722 0.0428339 2.8197 0.00558676 3.6432C-0.0497442 4.86977 0.303632 5.7609 1.16787 6.57404C1.99379 7.3511 2.89562 7.68927 4.0129 7.64088L4.63611 7.61388L4.77174 7.98433C4.8463 8.1881 5.41007 9.76613 6.02458 11.491C6.63916 13.2159 7.15495 14.64 7.17081 14.6557C7.23518 14.7195 7.5779 14.5475 7.55765 14.4616C7.54571 14.4111 6.99044 12.8379 6.32377 10.9656C5.65704 9.0934 5.12525 7.5262 5.14199 7.48296C5.15879 7.43972 5.23294 7.38866 5.30683 7.36954C5.44813 7.33292 5.40636 7.22672 6.96636 11.5962C7.23889 12.3595 7.2781 12.43 7.42054 12.4129C7.50631 12.4027 7.60381 12.3672 7.63728 12.3341C7.67331 12.2984 7.32425 11.2329 6.7785 9.71287L5.85893 7.15187L6.11183 6.95191C6.84213 6.37442 7.36798 5.60558 7.57743 4.80928C7.73991 4.19142 7.71278 3.28291 7.51332 2.66091C7.0254 1.13902 5.7067 0.13293 4.03678 0.00842289C3.79555 -0.00955486 3.44866 0.00220751 3.26586 0.0345541ZM4.52012 0.531983C5.93862 0.829786 7.00758 1.96212 7.21568 3.38737C7.4476 4.97623 6.40245 6.58815 4.83456 7.05978C4.17039 7.2596 3.17396 7.21763 2.55945 6.96394C0.732851 6.20988 -0.0767349 4.14658 0.763688 2.3871C1.20269 1.46803 2.1116 0.751325 3.11073 0.53626C3.65986 0.418102 3.97309 0.417166 4.52012 0.531983ZM3.17666 1.44491C2.73475 1.5489 2.08421 2.01745 1.79453 2.44023C1.33913 3.10514 1.22732 4.00222 1.51214 4.70723C1.63758 5.0178 1.61477 5.00423 1.84062 4.90225C2.04386 4.81055 2.04231 4.82298 1.90256 4.41685C1.7527 3.98124 1.8062 3.37721 2.03401 2.93191C2.62625 1.77432 4.17484 1.47023 5.14961 2.32007C5.86453 2.94334 6.03929 3.83815 5.63025 4.78088C5.60049 4.84938 5.65002 4.92002 5.78194 4.99722L5.97775 5.11176L6.13612 4.76177C6.35677 4.27416 6.35684 3.4411 6.13619 2.8882C5.93464 2.38336 5.39266 1.82859 4.86871 1.591C4.4295 1.39184 3.67801 1.32695 3.17666 1.44491ZM3.42949 2.73102C3.42949 2.74391 3.4604 2.84216 3.49812 2.94936C3.55797 3.11938 3.60156 3.14517 3.83975 3.15139C4.45905 3.16749 4.7492 3.88353 4.31189 4.31667C3.86823 4.75602 3.15959 4.45227 3.15959 3.82265C3.15959 3.55839 3.13982 3.5191 2.98779 3.48134C2.74076 3.41992 2.68725 3.47967 2.68725 3.8169C2.68725 4.98438 4.24198 5.41485 4.83105 4.41043C4.95649 4.1965 4.98234 4.06906 4.96304 3.75929C4.92181 3.09926 4.49772 2.70756 3.82437 2.70756C3.60716 2.70756 3.42949 2.71812 3.42949 2.73102ZM11.1829 2.90124C10.3932 3.15145 9.69998 3.77647 9.37258 4.5334C9.23675 4.84744 9.08418 5.76631 8.15091 11.8931C7.94875 13.2197 7.8223 14.2511 7.84625 14.3774C7.87115 14.5088 7.98303 14.6768 8.13208 14.8064C8.35604 15.0011 8.40786 15.0168 8.73776 14.9898C9.14734 14.9561 9.38877 14.7825 9.49754 14.4434C9.53412 14.3293 9.86981 12.2255 10.2435 9.76827C10.6173 7.311 10.9648 5.22083 11.016 5.12346C11.2275 4.72087 11.6005 4.51202 12.108 4.51202C12.476 4.51202 12.7222 4.63058 12.9966 4.94021C13.2851 5.26554 13.3171 5.58881 13.149 6.47974C12.9603 7.48102 12.9669 7.79112 13.1821 8.04454C13.4969 8.41506 14.0161 8.4706 14.3964 8.1744C14.6238 7.99723 14.6609 7.8927 14.8218 6.97664C15.078 5.51783 15.0661 5.18307 14.7328 4.46183C14.1219 3.14016 12.575 2.46008 11.1829 2.90124ZM13.1076 3.44879C13.2905 3.54001 13.4505 3.64514 13.463 3.68237C13.4914 3.76684 12.3323 4.04673 11.9598 4.04526C11.8023 4.04466 11.5498 4.11176 11.3694 4.20218L11.0544 4.36017L11.0553 4.0184C11.0572 3.31045 11.1683 3.23513 12.1677 3.26487C12.6559 3.27937 12.8402 3.31546 13.1076 3.44879ZM10.5983 4.2614C10.5882 4.56461 10.5363 5.02328 10.483 5.28058C10.4298 5.53788 10.362 5.89657 10.3323 6.07762L10.2784 6.40683L9.9385 5.94395C9.61482 5.50327 9.60099 5.46711 9.64957 5.18916C9.72035 4.78375 9.9551 4.3297 10.2674 3.99407C10.4128 3.83782 10.5509 3.71003 10.5743 3.71003C10.5976 3.71003 10.6085 3.95818 10.5983 4.2614ZM14.1834 4.39506C14.4846 4.91114 14.6823 5.90152 14.5057 6.00958C14.4337 6.05362 13.6791 5.21662 13.576 4.9785C13.5341 4.8816 13.4034 4.69353 13.2854 4.56054L13.071 4.31867L13.3617 4.24469C13.5215 4.20399 13.6826 4.15961 13.7197 4.14611C13.919 4.0736 14.0309 4.13368 14.1834 4.39506ZM2.09487 5.3005L1.94116 5.41772L2.1782 5.64535C2.30864 5.77053 2.42584 5.85995 2.43873 5.84411C2.678 5.54891 2.68253 5.50193 2.48725 5.33919C2.26174 5.1512 2.28745 5.15373 2.09487 5.3005ZM2.96903 5.9104C2.88684 6.14391 2.90554 6.16236 3.28408 6.22231C3.56175 6.26628 3.56445 6.26475 3.56445 6.06164C3.56445 5.83148 3.54845 5.81564 3.25183 5.75268C3.06033 5.71205 3.03361 5.72695 2.96903 5.9104ZM4.25608 5.78977C4.07207 5.84237 4.03678 5.88441 4.03678 6.05109C4.03678 6.23073 4.05763 6.24958 4.25608 6.24864C4.58159 6.2471 4.66668 6.16951 4.61216 5.92384C4.58672 5.80895 4.54549 5.71773 4.52066 5.721C4.49576 5.72434 4.37666 5.75529 4.25608 5.78977ZM14.336 7.1363C14.2109 7.84859 13.9482 8.09166 13.5864 7.82968C13.4309 7.71707 13.4308 7.55146 13.5859 6.62858L13.7075 5.90486L14.0673 6.2612L14.4271 6.61755L14.336 7.1363ZM9.86671 6.61835L10.1896 7.0539L10.0713 7.84786L9.95295 8.64189L9.60483 8.17119L9.25672 7.70049L9.37561 6.95833C9.441 6.55018 9.49626 6.20874 9.49842 6.19952C9.51009 6.1504 9.57217 6.22104 9.86671 6.61835ZM9.72852 10.0678L9.60362 10.8667L9.2603 10.3939L8.91697 9.92111L9.03702 9.17139C9.10308 8.75904 9.15888 8.40965 9.16104 8.39501C9.16326 8.38031 9.31988 8.57098 9.50922 8.81866L9.85335 9.2689L9.72852 10.0678ZM2.22524 9.38125C1.72989 9.62953 1.334 9.86103 1.34554 9.89572C1.36862 9.96522 2.21909 10.5937 2.29008 10.5937C2.31444 10.5937 2.38698 10.5142 2.45128 10.417C2.54771 10.2712 2.55203 10.2311 2.47591 10.1876C2.4251 10.1587 2.32449 10.0915 2.25229 10.0383C2.12712 9.94597 2.13401 9.93488 2.40142 9.79975C2.55567 9.72182 2.69825 9.65806 2.71829 9.65806C2.73833 9.65806 2.75473 9.77836 2.75473 9.92539C2.75473 10.1751 2.76741 10.1927 2.94832 10.1927C3.11964 10.1927 3.14677 10.1638 3.18374 9.9421C3.24218 9.59183 3.23739 8.92218 3.17646 8.92639C3.14859 8.92833 2.72058 9.13303 2.22524 9.38125ZM2.76606 10.4698C2.39494 10.6518 2.13637 11.0307 2.09905 11.4475C2.0753 11.7126 2.11356 11.8499 2.33752 12.3037C2.48421 12.601 2.68556 12.9076 2.78496 12.9849C3.39697 13.4618 4.30217 13.2647 4.63591 12.582C4.82458 12.196 4.81648 11.8975 4.60447 11.4207C4.36357 10.8788 4.13469 10.601 3.80844 10.4542C3.44258 10.2897 3.12376 10.2944 2.76606 10.4698ZM9.49741 11.5948C9.49471 11.6507 9.44154 12.006 9.37932 12.3844L9.26623 13.0724L8.92062 12.6143L8.575 12.1562L8.69734 11.3917C8.76468 10.9712 8.82149 10.6157 8.82365 10.6017C8.83533 10.5271 9.50159 11.5092 9.49741 11.5948ZM3.76168 10.9672C3.87585 11.0624 3.96931 11.1674 3.96931 11.2005C3.96931 11.2337 3.6685 11.4103 3.30082 11.5931C2.57065 11.9559 2.5523 11.9533 2.5523 11.4838C2.5523 11.3055 2.60776 11.1937 2.78172 11.0214C3.07922 10.7268 3.44866 10.7063 3.76168 10.9672ZM11.8508 10.952C10.7173 11.2634 10.1459 12.518 10.6795 13.5244C10.8054 13.7618 11.237 14.1612 11.5208 14.3028C11.6474 14.366 11.9241 14.4333 12.1356 14.4523C13.1887 14.5469 14.0908 13.722 14.0908 12.6648C14.0908 12.2931 14.0688 12.2641 13.8335 12.3261C13.6681 12.3698 13.6487 12.4097 13.6122 12.7837C13.5681 13.2344 13.387 13.5364 12.9945 13.8137C12.814 13.9412 12.6892 13.9687 12.2916 13.9687C11.8632 13.9687 11.7756 13.9459 11.5216 13.7682C10.8155 13.2742 10.7372 12.3605 11.3491 11.7544C11.6733 11.4334 12.0785 11.2954 12.5092 11.3594C12.7754 11.3989 12.7955 11.3905 12.8382 11.2219C12.8632 11.123 12.8592 11.019 12.8293 10.9906C12.7222 10.8886 12.1618 10.8666 11.8508 10.952ZM13.2617 11.4323C13.1446 11.5898 13.1455 11.6007 13.2912 11.7959C13.4676 12.0323 13.4677 12.0323 13.686 11.8646L13.8547 11.7351L13.6185 11.5026L13.3823 11.27L13.2617 11.4323ZM4.30568 12.0796C4.30716 12.4454 4.02639 12.7349 3.62666 12.7794C3.36627 12.8085 3.29069 12.7873 3.10587 12.6333C2.98698 12.5342 2.88968 12.426 2.88968 12.3929C2.88968 12.3597 3.18577 12.1853 3.54758 12.0052C4.26087 11.6501 4.30392 11.6544 4.30568 12.0796ZM11.6725 12.2342C11.3714 12.8888 11.9531 13.5584 12.6305 13.337C12.9391 13.2361 12.987 13.1578 12.8393 12.9962C12.7482 12.8964 12.6665 12.8763 12.4752 12.9066C12.1605 12.9564 12.0337 12.825 12.0864 12.5036C12.1136 12.3373 12.0918 12.2473 12.0055 12.17C11.8405 12.0222 11.7631 12.0371 11.6725 12.2342ZM8.85422 13.301C9.15557 13.7075 9.17359 13.7546 9.1298 14.0194C9.06893 14.3868 8.93013 14.5368 8.65085 14.5368C8.30179 14.5368 8.24976 14.3733 8.35422 13.6037C8.43303 13.0228 8.46724 12.866 8.51495 12.866C8.52419 12.866 8.67682 13.0617 8.85422 13.301ZM4.41675 13.1627C4.31283 13.3198 4.31668 13.3319 4.52086 13.4901L4.73287 13.6545L4.45501 13.7949C4.30217 13.8721 4.16074 13.9353 4.1407 13.9353C4.12066 13.9353 4.10426 13.815 4.10426 13.668C4.10426 13.4183 4.09151 13.4006 3.91101 13.4006C3.73226 13.4006 3.71452 13.4239 3.67484 13.7107C3.62329 14.0832 3.61823 14.6704 3.66654 14.6704C3.73557 14.6704 5.60252 13.7262 5.5791 13.7031C5.49219 13.6176 4.60474 12.9997 4.56891 12.9997C4.54455 12.9997 4.47613 13.073 4.41675 13.1627Z" fill="#3E3E3E"/>
</svg>
