<svg width="15" height="15" viewBox="0 0 15 15" fill="none" xmlns="http://www.w3.org/2000/svg">
<path fill-rule="evenodd" clip-rule="evenodd" d="M6.08923 0.0840695C2.49329 0.832897 0 3.84804 0 7.44791C0 11.6809 3.29616 15 7.50004 15C11.2155 15 14.2763 12.3961 14.9292 8.67972C15.0745 7.85285 14.9871 6.29626 14.7497 5.48194C13.9887 2.87231 12.1136 0.993792 9.50247 0.224908C8.94667 0.0612409 8.67572 0.0279823 7.71848 0.00588293C6.9304 -0.0123509 6.43882 0.01128 6.08923 0.0840695ZM8.20162 0.777393C9.80648 0.946822 11.1985 1.63555 12.35 2.83008C13.1543 3.66439 13.6325 4.48455 13.9456 5.56655C14.6275 7.92382 14.0506 10.344 12.3889 12.0965C11.0484 13.5102 9.45631 14.2015 7.53644 14.2035C6.34401 14.2049 5.46913 14.0158 4.55099 13.5585C3.10101 12.8363 1.76309 11.3895 1.23124 9.96856C0.502721 8.02228 0.654906 5.92218 1.65423 4.13264C2.13787 3.26668 3.28596 2.1167 4.15051 1.63227C4.93845 1.19086 5.97775 0.853391 6.77188 0.781258C7.11229 0.750334 7.42358 0.721014 7.46363 0.716127C7.50368 0.711241 7.83579 0.73881 8.20162 0.777393ZM8.81094 7.0863L6.51826 9.38361L5.35175 8.2168C4.41818 7.28293 4.14585 7.05005 3.98754 7.05005C3.75067 7.05005 3.52072 7.3431 3.61924 7.51939C3.65383 7.58131 4.2831 8.23948 5.0176 8.98203C5.90981 9.88395 6.40416 10.3321 6.50675 10.3321C6.69688 10.3321 11.6505 5.39675 11.6505 5.20727C11.6505 5.04338 11.3956 4.78905 11.2314 4.78905C11.1607 4.78905 10.0787 5.81598 8.81094 7.0863Z" fill="#3E3E3E"/>
</svg>
