<svg width="17" height="19" viewBox="0 0 17 19" fill="none" xmlns="http://www.w3.org/2000/svg">
<path fill-rule="evenodd" clip-rule="evenodd" d="M1.92999 0.0756437L1.8404 0.151327L1.82143 3.19164L1.80246 6.23196L0.948661 6.9559C0.479074 7.35407 0.0735402 7.7098 0.047433 7.74646C0.0100179 7.79899 0 8.97421 0 13.3094V18.8057L0.0931586 18.9028L0.186279 19H8.5H16.8137L16.9068 18.9028L17 18.8057V13.3248C17 10.3104 16.9898 7.81609 16.9772 7.782C16.9647 7.74796 16.5548 7.37996 16.0665 6.96425L15.1786 6.20845V3.20138V0.194315L15.0854 0.0971771L14.9923 0H8.50592C2.17634 0 2.01742 0.00182081 1.92999 0.0756437ZM14.57 4.93802L14.5686 9.24271L12.9533 10.549C12.0648 11.2674 11.3141 11.8904 11.285 11.9333C11.1461 12.1385 11.2811 12.4081 11.5222 12.4068C11.6571 12.406 11.8528 12.2563 14.0212 10.4954L16.3739 8.58483L16.3837 10.7019C16.3891 11.8663 16.3891 13.7827 16.3837 14.9606L16.3739 17.1023L12.4894 14.2512C9.63923 12.1592 8.57726 11.4 8.50114 11.4C8.42498 11.4 7.36278 12.1594 4.51175 14.2521L0.626116 17.1042L0.616288 14.9874C0.6109 13.8232 0.6109 11.9064 0.616288 10.7278L0.626116 8.58499L2.99496 10.5071C4.29781 11.5642 5.39067 12.4312 5.42353 12.4337C5.56803 12.4448 5.64058 12.4184 5.72042 12.3258C5.82466 12.205 5.82937 12.075 5.73405 11.9496C5.69458 11.8977 4.93535 11.2674 4.04683 10.549L2.43138 9.24271L2.42998 4.93802L2.42857 0.633333H8.5H14.5714L14.57 4.93802ZM6.58371 3.22236C5.91061 3.39601 5.34612 4.00132 5.2034 4.70246C5.07382 5.33928 5.24666 6.09738 5.67606 6.77536C6.14296 7.51256 7.25384 8.45737 8.20861 8.92933L8.50539 9.07602L8.89165 8.8745C9.9403 8.32746 10.949 7.43494 11.397 6.6578C11.7564 6.03432 11.9137 5.2919 11.8034 4.73959C11.5062 3.25189 9.74954 2.6579 8.70237 3.69103L8.5 3.89065L8.29763 3.69103C7.84755 3.24698 7.18766 3.06652 6.58371 3.22236ZM7.53214 3.91455C7.75454 4.01719 8.05944 4.31886 8.16019 4.53601C8.35565 4.95718 8.62735 4.97084 8.82209 4.56934C8.94595 4.31399 9.23468 4.02289 9.47837 3.90771C9.74904 3.77981 10.1938 3.78781 10.4788 3.92572C11.1624 4.25647 11.4067 5.07688 11.0717 5.91664C10.8321 6.51728 10.183 7.26287 9.44794 7.78185C8.99881 8.09895 8.57608 8.35208 8.49571 8.35208C8.41728 8.35208 7.673 7.88259 7.33182 7.61789C6.94685 7.31924 6.31296 6.64398 6.15282 6.36191C5.76721 5.6827 5.67865 5.0654 5.896 4.57223C6.05887 4.20272 6.32795 3.96566 6.71382 3.85166C6.93748 3.78559 7.31565 3.81469 7.53214 3.91455ZM1.80606 8.698C1.78435 8.72064 0.834821 7.95261 0.834821 7.91239C0.834821 7.89585 1.05252 7.6965 1.31864 7.46941L1.80246 7.05648L1.81274 7.86841C1.81839 8.31495 1.81536 8.68826 1.80606 8.698ZM15.7565 7.53211L16.2017 7.91124L15.7113 8.30981C15.4416 8.52898 15.2114 8.70833 15.1997 8.70833C15.1881 8.70833 15.1786 8.3315 15.1786 7.87095C15.1786 7.07706 15.182 7.03665 15.245 7.09325C15.2815 7.12611 15.5117 7.32359 15.7565 7.53211ZM12.4493 15.008L16.3929 17.9034V18.1351V18.3667H8.49818H0.603538L0.614808 18.1285L0.626116 17.8903L4.55357 15.0037C6.71367 13.4161 8.48657 12.1161 8.49336 12.1148C8.50015 12.1136 10.2803 13.4155 12.4493 15.008Z" fill="white"/>
</svg>
