<svg width="32" height="32" viewBox="0 0 32 32" fill="none" xmlns="http://www.w3.org/2000/svg">
<path d="M8.5 7.5H19.5C19.6326 7.5 19.7598 7.44732 19.8536 7.35355C19.9473 7.25979 20 7.13261 20 7C20 6.86739 19.9473 6.74021 19.8536 6.64645C19.7598 6.55268 19.6326 6.5 19.5 6.5H8.5C8.36739 6.5 8.24021 6.55268 8.14645 6.64645C8.05268 6.74021 8 6.86739 8 7C8 7.13261 8.05268 7.25979 8.14645 7.35355C8.24021 7.44732 8.36739 7.5 8.5 7.5ZM8.5 10.5H19.5C19.6326 10.5 19.7598 10.4473 19.8536 10.3536C19.9473 10.2598 20 10.1326 20 10C20 9.86739 19.9473 9.74021 19.8536 9.64645C19.7598 9.55268 19.6326 9.5 19.5 9.5H8.5C8.36739 9.5 8.24021 9.55268 8.14645 9.64645C8.05268 9.74021 8 9.86739 8 10C8 10.1326 8.05268 10.2598 8.14645 10.3536C8.24021 10.4473 8.36739 10.5 8.5 10.5ZM8.5 13.5H19.5C19.6326 13.5 19.7598 13.4473 19.8536 13.3536C19.9473 13.2598 20 13.1326 20 13C20 12.8674 19.9473 12.7402 19.8536 12.6464C19.7598 12.5527 19.6326 12.5 19.5 12.5H8.5C8.36739 12.5 8.24021 12.5527 8.14645 12.6464C8.05268 12.7402 8 12.8674 8 13C8 13.1326 8.05268 13.2598 8.14645 13.3536C8.24021 13.4473 8.36739 13.5 8.5 13.5ZM8.5 16.5H19.5C19.6326 16.5 19.7598 16.4473 19.8536 16.3536C19.9473 16.2598 20 16.1326 20 16C20 15.8674 19.9473 15.7402 19.8536 15.6464C19.7598 15.5527 19.6326 15.5 19.5 15.5H8.5C8.36739 15.5 8.24021 15.5527 8.14645 15.6464C8.05268 15.7402 8 15.8674 8 16C8 16.1326 8.05268 16.2598 8.14645 16.3536C8.24021 16.4473 8.36739 16.5 8.5 16.5ZM8.5 19.5H12.5C12.6326 19.5 12.7598 19.4473 12.8536 19.3536C12.9473 19.2598 13 19.1326 13 19C13 18.8674 12.9473 18.7402 12.8536 18.6464C12.7598 18.5527 12.6326 18.5 12.5 18.5H8.5C8.36739 18.5 8.24021 18.5527 8.14645 18.6464C8.05268 18.7402 8 18.8674 8 19C8 19.1326 8.05268 19.2598 8.14645 19.3536C8.24021 19.4473 8.36739 19.5 8.5 19.5Z" fill="#3E3E3E"/>
<path d="M28.258 12.8134C27.9147 12.6127 27.5058 12.5564 27.121 12.6568C26.7362 12.7572 26.4069 13.0062 26.2055 13.3491L24.9998 15.4063V3C24.9998 2.86739 24.9471 2.74022 24.8533 2.64645C24.7596 2.55268 24.6324 2.5 24.4998 2.5H20.7069C20.7069 2.5 19.2045 0.97 19.1444 1.0215C19.0975 1.00726 19.0488 1.00002 18.9998 1H4.49978C4.36717 1 4.24 1.05268 4.14623 1.14645C4.05246 1.24021 3.99978 1.36739 3.99978 1.5V3.06331C3.5703 3.17403 3.1898 3.42436 2.91812 3.77495C2.64645 4.12553 2.49902 4.55647 2.49902 5C2.49902 5.44353 2.64645 5.87447 2.91812 6.22506C3.1898 6.57564 3.5703 6.82597 3.99978 6.93669V8.06331C3.5703 8.17403 3.1898 8.42436 2.91812 8.77495C2.64645 9.12553 2.49902 9.55647 2.49902 10C2.49902 10.4435 2.64645 10.8745 2.91812 11.2251C3.1898 11.5756 3.5703 11.826 3.99978 11.9367V13.0633C3.5703 13.174 3.1898 13.4244 2.91812 13.7749C2.64645 14.1255 2.49902 14.5565 2.49902 15C2.49902 15.4435 2.64645 15.8745 2.91812 16.2251C3.1898 16.5756 3.5703 16.826 3.99978 16.9367V17.5633C3.5703 17.674 3.1898 17.9244 2.91812 18.2749C2.64645 18.6255 2.49902 19.0565 2.49902 19.5C2.49902 19.9435 2.64645 20.3745 2.91812 20.7251C3.1898 21.0756 3.5703 21.326 3.99978 21.4367V24.5C3.99978 24.6326 4.05246 24.7598 4.14623 24.8536C4.24 24.9473 4.36717 25 4.49978 25H4.99978V26.5C4.99978 26.6326 5.05246 26.7598 5.14623 26.8536C5.24 26.9473 5.36717 27 5.49978 27H18.2055L17.8629 27.5846C17.8322 27.6371 17.8114 27.6947 17.8016 27.7547C17.8011 27.7576 17.8003 27.76 17.7998 27.7629L17.7986 27.7711V27.773L17.3986 30.4255C17.3837 30.5243 17.3988 30.6253 17.4418 30.7155C17.4849 30.8057 17.554 30.8809 17.6402 30.9314C17.7264 30.9819 17.8258 31.0055 17.9255 30.999C18.0252 30.9925 18.1207 30.9562 18.1997 30.8949L20.3264 29.2438C20.4627 29.1379 20.5292 29.0732 20.5187 28.9863L21.6827 27H24.4998C24.6324 27 24.7596 26.9473 24.8533 26.8536C24.9471 26.7598 24.9998 26.6326 24.9998 26.5V21.3399L28.7935 14.8659C28.9942 14.5226 29.0506 14.1137 28.9502 13.729C28.8498 13.3442 28.6009 13.0149 28.258 12.8134ZM27.3733 13.6238C27.469 13.5988 27.57 13.6027 27.6634 13.6351C27.7568 13.6675 27.8386 13.7269 27.8983 13.8058C27.9579 13.8846 27.9929 13.9794 27.9987 14.0781C28.0046 14.1768 27.981 14.2751 27.931 14.3604L27.6782 14.7916L26.8157 14.286L27.0685 13.8548C27.1015 13.798 27.1455 13.7484 27.1978 13.7087C27.2501 13.6691 27.3098 13.6402 27.3733 13.6238ZM19.8412 28.1645L18.9787 27.6589L25.5514 16.4431L26.4139 16.9487L19.8412 28.1645ZM19.4998 2.70713L21.2927 4.5H19.4998V2.70713ZM26.057 15.5803L26.3098 15.149L27.1726 15.6546L26.9198 16.0859L26.057 15.5803ZM23.9998 3.5V17C23.9998 17.0324 24.003 17.0648 24.0093 17.0966L22.9998 18.8193V5C22.9999 4.93444 22.987 4.86951 22.9619 4.80893C22.9369 4.74835 22.9001 4.6933 22.8538 4.64694L22.8533 4.64644L21.7069 3.5H23.9998ZM4.99978 2H18.4998V5C18.4998 5.13261 18.5525 5.25979 18.6462 5.35355C18.74 5.44732 18.8672 5.5 18.9998 5.5H21.9998V20.5256L19.9637 24H4.99978V21.4368C5.34593 21.3476 5.66184 21.1673 5.91458 20.9145C6.16731 20.6617 6.34762 20.3458 6.43672 19.9996C6.46977 19.8712 6.45044 19.7348 6.38297 19.6206C6.31551 19.5064 6.20543 19.4237 6.07697 19.3906C6.01336 19.3743 5.94715 19.3706 5.88212 19.3798C5.81709 19.389 5.75451 19.411 5.69796 19.4444C5.58375 19.5118 5.50102 19.6219 5.46797 19.7504C5.43484 19.8789 5.37636 19.9996 5.29596 20.1052C5.21556 20.2109 5.11486 20.2994 4.99978 20.3656V16.9368C5.34593 16.8476 5.66184 16.6673 5.91458 16.4145C6.16731 16.1617 6.34762 15.8458 6.43672 15.4996C6.46977 15.3712 6.45044 15.2348 6.38297 15.1206C6.31551 15.0064 6.20543 14.9237 6.07697 14.8906C5.94851 14.8576 5.81217 14.8769 5.69796 14.9444C5.58375 15.0118 5.50102 15.1219 5.46797 15.2504C5.43484 15.3789 5.37636 15.4996 5.29596 15.6052C5.21556 15.7109 5.11486 15.7994 4.99978 15.8656V11.9368C5.34593 11.8476 5.66184 11.6673 5.91458 11.4145C6.16731 11.1617 6.34762 10.8458 6.43672 10.4996C6.46977 10.3712 6.45044 10.2348 6.38297 10.1206C6.31551 10.0064 6.20543 9.92368 6.07697 9.89063C5.94851 9.85757 5.81217 9.87691 5.69796 9.94437C5.58375 10.0118 5.50102 10.1219 5.46797 10.2504C5.43484 10.3789 5.37636 10.4996 5.29596 10.6052C5.21556 10.7109 5.11486 10.7994 4.99978 10.8656V6.93675C5.34593 6.84761 5.66184 6.66726 5.91458 6.41449C6.16731 6.16172 6.34762 5.84579 6.43672 5.49963C6.46977 5.37116 6.45044 5.23483 6.38297 5.12062C6.31551 5.00641 6.20543 4.92368 6.07697 4.89063C5.94851 4.85757 5.81217 4.87691 5.69796 4.94437C5.58375 5.01184 5.50102 5.12191 5.46797 5.25038C5.43484 5.37894 5.37636 5.49959 5.29596 5.60524C5.21556 5.7109 5.11486 5.79942 4.99978 5.86563V2ZM3.49978 5C3.50002 4.82469 3.54633 4.65252 3.63409 4.50076C3.72185 4.34899 3.84796 4.22297 3.99978 4.13531V5.86469C3.84796 5.77703 3.72185 5.65101 3.63409 5.49924C3.54633 5.34748 3.50002 5.17531 3.49978 5ZM3.49978 10C3.50002 9.82469 3.54633 9.65252 3.63409 9.50076C3.72185 9.349 3.84796 9.22297 3.99978 9.13531V10.8647C3.84796 10.777 3.72185 10.651 3.63409 10.4992C3.54633 10.3475 3.50002 10.1753 3.49978 10ZM3.49978 15C3.50002 14.8247 3.54633 14.6525 3.63409 14.5008C3.72185 14.349 3.84796 14.223 3.99978 14.1353V15.8647C3.84796 15.777 3.72185 15.651 3.63409 15.4992C3.54633 15.3475 3.50002 15.1753 3.49978 15ZM3.49978 19.5C3.50002 19.3247 3.54633 19.1525 3.63409 19.0008C3.72185 18.849 3.84796 18.723 3.99978 18.6353V20.3647C3.84796 20.277 3.72185 20.151 3.63409 19.9992C3.54633 19.8475 3.50002 19.6753 3.49978 19.5ZM5.99978 26V25H19.3776L18.7915 26H5.99978ZM18.6786 28.6423L19.1298 28.9067L18.5735 29.3384L18.6786 28.6423ZM23.9998 26H22.2685L23.9998 23.0462V26Z" fill="#3E3E3E"/>
</svg>
