<svg width="29" height="34" viewBox="0 0 29 34" fill="none" xmlns="http://www.w3.org/2000/svg">
<path d="M27.6406 17H25.5846C25.7261 16.7135 25.8085 16.3921 25.8252 16.0616C25.8419 15.731 25.7924 15.4005 25.6807 15.0964C25.5689 14.7923 25.3981 14.5231 25.1817 14.3102C24.9654 14.0974 24.7096 13.9468 24.4348 13.8705C24.4035 13.6058 24.3482 13.3457 24.2698 13.0947C23.9797 12.1872 23.4066 11.6875 22.6562 11.6875C22.5361 11.6875 22.4208 11.7435 22.3358 11.8431C22.2509 11.9427 22.2031 12.0778 22.2031 12.2187C22.2031 12.3596 22.2509 12.4948 22.3358 12.5944C22.4208 12.694 22.5361 12.75 22.6562 12.75C22.8828 12.75 23.2082 12.8222 23.4147 13.4473C23.4615 13.5921 23.4968 13.7416 23.5202 13.894C23.2549 13.9822 23.0103 14.1401 22.805 14.356C22.5997 14.5718 22.4392 14.8397 22.3357 15.1393C22.2322 15.4389 22.1884 15.7623 22.2077 16.0847C22.2269 16.4072 22.3088 16.7203 22.447 17H19.1872L20.3715 12.3715C20.4033 12.2481 20.3956 12.1154 20.3498 11.9982C20.3041 11.881 20.2234 11.7874 20.123 11.735C20.2531 11.4865 20.3382 11.2093 20.3729 10.9207C20.4077 10.632 20.3914 10.3381 20.325 10.0571C20.2587 9.77614 20.1437 9.51421 19.9872 9.28763C19.8308 9.06104 19.6362 8.87465 19.4156 8.74005C19.2532 7.7742 18.8099 6.9044 18.1613 6.27922C17.5127 5.65404 16.699 5.31226 15.8594 5.31226C15.0197 5.31226 14.2061 5.65404 13.5575 6.27922C12.9089 6.9044 12.4655 7.7742 12.3031 8.74005C12.0826 8.87465 11.888 9.06104 11.7315 9.28763C11.5751 9.51421 11.4601 9.77614 11.3937 10.0571C11.3274 10.3381 11.3111 10.632 11.3458 10.9207C11.3806 11.2093 11.4657 11.4865 11.5958 11.735C11.4953 11.7874 11.4147 11.881 11.3689 11.9982C11.3232 12.1154 11.3154 12.2481 11.3472 12.3715L12.2076 15.7338C11.3207 15.5286 10.4196 15.4189 9.51562 15.4062C8.3934 15.4062 6.50721 15.6543 4.88469 16.3536C2.34549 17.4479 1.8125 19.0425 1.8125 20.1875V20.2046C1.21891 21.0128 0.90625 21.9212 0.90625 22.8437V23.375C0.90625 24.0422 1.3502 24.6015 1.99811 24.842L2.56067 27.4804C2.63391 27.8253 2.80356 28.1317 3.04257 28.3504C3.28159 28.5692 3.5762 28.6879 3.87943 28.6875H27.6406C27.7608 28.6875 27.8761 28.6315 27.961 28.5319C28.046 28.4323 28.0938 28.2971 28.0938 28.1562V17.5312C28.0938 17.3903 28.046 17.2552 27.961 17.1556C27.8761 17.056 27.7608 17 27.6406 17ZM23.1094 15.9375C23.1094 15.7274 23.1625 15.5219 23.2621 15.3472C23.3617 15.1725 23.5032 15.0363 23.6688 14.9559C23.8344 14.8755 24.0166 14.8544 24.1924 14.8954C24.3682 14.9364 24.5297 15.0376 24.6564 15.1862C24.7832 15.3348 24.8695 15.5241 24.9045 15.7302C24.9394 15.9363 24.9215 16.15 24.8529 16.3441C24.7843 16.5382 24.6681 16.7042 24.5191 16.8209C24.3701 16.9377 24.1949 17 24.0156 17C23.7754 16.9997 23.545 16.8876 23.3751 16.6884C23.2052 16.4892 23.1097 16.2192 23.1094 15.9375ZM15.4411 17L16.1661 14.875H17.0432L16.7888 15.7695C16.77 15.8357 16.7625 15.9056 16.7667 15.9752C16.771 16.0448 16.7868 16.1127 16.8134 16.1751C16.84 16.2375 16.8769 16.2931 16.9218 16.3389C16.9668 16.3846 17.019 16.4195 17.0754 16.4415C17.1895 16.4861 17.3139 16.4757 17.4214 16.4127C17.4746 16.3815 17.5221 16.3383 17.5611 16.2856C17.6001 16.2329 17.6298 16.1717 17.6487 16.1055L17.9985 14.875H18.7847L18.241 17H15.4411ZM12.8544 9.61688C12.9359 9.5851 13.008 9.52683 13.0623 9.44886C13.1166 9.37089 13.1509 9.27643 13.1612 9.17648C13.2415 8.40374 13.5603 7.69218 14.0573 7.17608C14.5544 6.65998 15.1954 6.37504 15.8594 6.37504C16.5233 6.37504 17.1643 6.65998 17.6614 7.17608C18.1585 7.69218 18.4772 8.40374 18.5575 9.17648C18.5678 9.27643 18.6021 9.37089 18.6564 9.44886C18.7107 9.52683 18.7829 9.5851 18.8643 9.61688C19.0685 9.69658 19.2419 9.85887 19.3533 10.0747C19.4648 10.2906 19.5071 10.5459 19.4727 10.795C19.4383 11.044 19.3293 11.2706 19.1654 11.4342C19.0015 11.5977 18.7933 11.6875 18.5781 11.6875H13.1406C12.9254 11.6875 12.7172 11.5977 12.5533 11.4342C12.3894 11.2706 12.2805 11.044 12.2461 10.795C12.2116 10.5459 12.2539 10.2906 12.3654 10.0747C12.4769 9.85887 12.6502 9.69658 12.8544 9.61688ZM12.9341 14.875H13.5938C13.7139 14.875 13.8292 14.819 13.9142 14.7194C13.9991 14.6198 14.0469 14.4846 14.0469 14.3437C14.0469 14.2028 13.9991 14.0677 13.9142 13.9681C13.8292 13.8685 13.7139 13.8125 13.5938 13.8125H12.6875C12.6791 13.8125 12.6708 13.8134 12.6625 13.814L12.3903 12.75H19.3287L19.0569 13.8125H15.8594C15.7688 13.8125 15.6804 13.8442 15.6054 13.9037C15.5304 13.9632 15.4723 14.0477 15.4386 14.1462L14.6117 16.5704C14.4644 16.4962 14.3094 16.4238 14.1467 16.3533C13.8465 16.2238 13.5367 16.1099 13.2247 16.0101L12.9341 14.875ZM1.8125 23.375V22.8437C1.8125 22.1235 2.07656 21.4256 2.59731 20.7695C2.67537 20.6712 2.71876 20.5419 2.71875 20.4076V20.1875C2.71875 18.7258 4.0668 17.8382 5.19734 17.3508C6.70812 16.6998 8.46777 16.4687 9.51562 16.4687C10.5635 16.4687 12.3231 16.6998 13.8339 17.3508C14.9645 17.8382 16.3125 18.7258 16.3125 20.1875V20.4076C16.3125 20.5419 16.3559 20.6712 16.4339 20.7695C16.9547 21.4256 17.2188 22.1235 17.2188 22.8437V23.375C17.2188 23.5916 16.8657 23.9062 16.3125 23.9062C15.7593 23.9062 15.4062 23.5916 15.4062 23.375C15.4062 23.2341 15.3585 23.099 15.2735 22.9993C15.1886 22.8997 15.0733 22.8437 14.9531 22.8437C14.8329 22.8437 14.7177 22.8997 14.6327 22.9993C14.5477 23.099 14.5 23.2341 14.5 23.375C14.5 23.5916 14.147 23.9062 13.5938 23.9062C13.0405 23.9062 12.6875 23.5916 12.6875 23.375C12.6875 23.2341 12.6398 23.099 12.5548 22.9993C12.4698 22.8997 12.3546 22.8437 12.2344 22.8437C12.1142 22.8437 11.9989 22.8997 11.914 22.9993C11.829 23.099 11.7812 23.2341 11.7812 23.375C11.7812 23.5916 11.4282 23.9062 10.875 23.9062C10.3218 23.9062 9.96875 23.5916 9.96875 23.375C9.96875 23.2341 9.92101 23.099 9.83603 22.9993C9.75106 22.8997 9.6358 22.8437 9.51562 22.8437C9.39545 22.8437 9.28019 22.8997 9.19522 22.9993C9.11024 23.099 9.0625 23.2341 9.0625 23.375C9.0625 23.5916 8.70946 23.9062 8.15625 23.9062C7.60304 23.9062 7.25 23.5916 7.25 23.375C7.25 23.2341 7.20226 23.099 7.11728 22.9993C7.03231 22.8997 6.91705 22.8437 6.79688 22.8437C6.6767 22.8437 6.56144 22.8997 6.47647 22.9993C6.39149 23.099 6.34375 23.2341 6.34375 23.375C6.34375 23.5916 5.99071 23.9062 5.4375 23.9062C4.88429 23.9062 4.53125 23.5916 4.53125 23.375C4.53125 23.2341 4.48351 23.099 4.39853 22.9993C4.31356 22.8997 4.1983 22.8437 4.07812 22.8437C3.95795 22.8437 3.84269 22.8997 3.75772 22.9993C3.67274 23.099 3.625 23.2341 3.625 23.375C3.625 23.5916 3.27196 23.9062 2.71875 23.9062C2.16554 23.9062 1.8125 23.5916 1.8125 23.375ZM18.125 23.375V22.8437H25.375V24.9687H17.0061L17.0331 24.842C17.6811 24.6015 18.125 24.0422 18.125 23.375ZM16.4706 27.4803L16.7796 26.0312H25.375V27.625H16.433C16.4472 27.5778 16.46 27.5297 16.4706 27.4803ZM25.375 21.7812H17.985C17.8247 21.1996 17.5639 20.6628 17.2188 20.2046V20.1875H25.375V21.7812ZM3.87943 27.625C3.77834 27.6251 3.68012 27.5856 3.60044 27.5126C3.52076 27.4397 3.4642 27.3376 3.43979 27.2226L2.95664 24.9555C3.40489 24.906 3.79747 24.7183 4.07841 24.4401C4.40772 24.7662 4.89075 24.9687 5.4375 24.9687C5.98425 24.9687 6.46728 24.7662 6.79688 24.4398C7.12647 24.7662 7.6095 24.9687 8.15625 24.9687C8.703 24.9687 9.18603 24.7662 9.51562 24.4398C9.84522 24.7662 10.3282 24.9687 10.875 24.9687C11.4218 24.9687 11.9048 24.7662 12.2344 24.4398C12.564 24.7662 13.047 24.9687 13.5938 24.9687C14.1405 24.9687 14.6235 24.7662 14.9531 24.4398C15.2341 24.718 15.6266 24.9057 16.0749 24.9552L15.5915 27.2225C15.5671 27.3375 15.5105 27.4397 15.4308 27.5126C15.3511 27.5856 15.2529 27.6251 15.1518 27.625H3.87943ZM27.1875 27.625H26.2812V19.6562C26.2812 19.5153 26.2335 19.3802 26.1485 19.2806C26.0636 19.181 25.9483 19.125 25.8281 19.125H17.0559C16.9281 18.7335 16.7396 18.3733 16.4998 18.0625H27.1875V27.625Z" fill="#3E3E3E"/>
<path d="M6.79726 19.125C6.84599 19.125 6.89439 19.1157 6.94062 19.0976L8.29999 18.5664C8.41401 18.5218 8.50826 18.426 8.56201 18.3C8.61576 18.1739 8.6246 18.028 8.5866 17.8944C8.54859 17.7607 8.46685 17.6502 8.35935 17.5872C8.25185 17.5242 8.12741 17.5138 8.01339 17.5583L6.65402 18.0896C6.55184 18.1294 6.46509 18.2105 6.40931 18.3185C6.35353 18.4265 6.33236 18.5542 6.3496 18.6788C6.36683 18.8034 6.42135 18.9167 6.50338 18.9985C6.58541 19.0803 6.68959 19.1251 6.79726 19.125ZM9.51601 20.7188C9.63619 20.7188 9.75144 20.6628 9.83642 20.5632C9.9214 20.4635 9.96914 20.3284 9.96914 20.1875V19.125C9.96914 18.9841 9.9214 18.849 9.83642 18.7493C9.75144 18.6497 9.63619 18.5938 9.51601 18.5938C9.39583 18.5938 9.28058 18.6497 9.1956 18.7493C9.11063 18.849 9.06289 18.9841 9.06289 19.125V20.1875C9.06289 20.3284 9.11063 20.4635 9.1956 20.5632C9.28058 20.6628 9.39583 20.7188 9.51601 20.7188ZM10.7321 18.5665L12.0915 19.0978C12.1479 19.1198 12.2075 19.1286 12.2669 19.1237C12.3262 19.1188 12.3842 19.1001 12.4374 19.0689C12.4906 19.0377 12.5381 18.9946 12.5771 18.9418C12.6161 18.8891 12.6458 18.8279 12.6647 18.7618C12.6835 18.6956 12.691 18.6257 12.6868 18.5561C12.6826 18.4865 12.6667 18.4186 12.6401 18.3562C12.6135 18.2937 12.5766 18.2381 12.5317 18.1924C12.4867 18.1467 12.4345 18.1118 12.3781 18.0897L11.0187 17.5585C10.9047 17.5139 10.7802 17.5243 10.6727 17.5873C10.5652 17.6503 10.4835 17.7608 10.4455 17.8945C10.4075 18.0282 10.4163 18.1741 10.4701 18.3001C10.5238 18.4261 10.6181 18.522 10.7321 18.5665ZM15.8598 8.5C16.1 8.50033 16.3304 8.61238 16.5003 8.81157C16.6702 9.01075 16.7657 9.28081 16.766 9.5625C16.766 9.7034 16.8138 9.83852 16.8987 9.93815C16.9837 10.0378 17.099 10.0938 17.2191 10.0938C17.3393 10.0938 17.4546 10.0378 17.5395 9.93815C17.6245 9.83852 17.6723 9.7034 17.6723 9.5625C17.6717 8.99911 17.4806 8.45897 17.1408 8.0606C16.801 7.66222 16.3403 7.43813 15.8598 7.4375C15.7396 7.4375 15.6243 7.49347 15.5394 7.5931C15.4544 7.69273 15.4066 7.82785 15.4066 7.96875C15.4066 8.10965 15.4544 8.24477 15.5394 8.3444C15.6243 8.44403 15.7396 8.5 15.8598 8.5Z" fill="#3E3E3E"/>
</svg>
