<svg width="27" height="27" viewBox="0 0 27 27" fill="none" xmlns="http://www.w3.org/2000/svg">
<g clip-path="url(#clip0_141_1866)">
<path d="M13.0575 11.7783V12.4211C13.0575 12.526 13.0992 12.6266 13.1734 12.7008C13.2475 12.775 13.3481 12.8167 13.453 12.8167C13.5579 12.8167 13.6585 12.775 13.7327 12.7008C13.8069 12.6266 13.8485 12.526 13.8485 12.4211V11.7783C13.8485 11.6734 13.8069 11.5728 13.7327 11.4986C13.6585 11.4245 13.5579 11.3828 13.453 11.3828C13.3481 11.3828 13.2475 11.4245 13.1734 11.4986C13.0992 11.5728 13.0575 11.6734 13.0575 11.7783ZM19.7482 11.7783V12.4211C19.7482 12.526 19.7899 12.6266 19.864 12.7008C19.9382 12.775 20.0388 12.8167 20.1437 12.8167C20.2486 12.8167 20.3492 12.775 20.4234 12.7008C20.4975 12.6266 20.5392 12.526 20.5392 12.4211V11.7783C20.5392 11.6734 20.4975 11.5728 20.4234 11.4986C20.3492 11.4245 20.2486 11.3828 20.1437 11.3828C20.0388 11.3828 19.9382 11.4245 19.864 11.4986C19.7899 11.5728 19.7482 11.6734 19.7482 11.7783ZM17.3822 12.1422C17.2348 12.3113 17.022 12.4083 16.7984 12.4083C16.5748 12.4083 16.362 12.3114 16.2146 12.1422C16.1457 12.0631 16.0482 12.0146 15.9435 12.0074C15.8389 12.0002 15.7357 12.0349 15.6566 12.1038C15.5775 12.1728 15.529 12.2703 15.5218 12.3749C15.5146 12.4796 15.5493 12.5828 15.6182 12.6619C15.7651 12.8306 15.9465 12.9659 16.15 13.0586C16.3536 13.1513 16.5747 13.1993 16.7984 13.1993C17.0221 13.1993 17.2432 13.1513 17.4467 13.0586C17.6503 12.9658 17.8316 12.8306 17.9785 12.6619C18.013 12.6228 18.0394 12.5772 18.0563 12.5279C18.0731 12.4785 18.08 12.4264 18.0766 12.3743C18.0732 12.3223 18.0595 12.2715 18.0364 12.2247C18.0132 12.178 17.9811 12.1363 17.9418 12.1021C17.9025 12.0678 17.8568 12.0417 17.8073 12.0251C17.7579 12.0086 17.7057 12.002 17.6537 12.0057C17.6016 12.0095 17.5509 12.0234 17.5043 12.0469C17.4577 12.0703 17.4162 12.1027 17.3822 12.1422ZM21.3493 21.7881C20.5445 21.7881 19.8898 22.4429 19.8898 23.2476C19.8898 24.0523 20.5445 24.7071 21.3493 24.7071C22.154 24.7071 22.8088 24.0523 22.8088 23.2476C22.8088 22.4429 22.1541 21.7881 21.3493 21.7881ZM21.3493 23.9161C20.9806 23.9161 20.6808 23.6162 20.6808 23.2476C20.6808 22.8791 20.9807 22.5792 21.3493 22.5792C21.7178 22.5792 22.0178 22.8791 22.0178 23.2476C22.0178 23.6162 21.7179 23.9161 21.3493 23.9161ZM11.1704 21.7881C10.3656 21.7881 9.71094 22.4429 9.71094 23.2476C9.71094 24.0523 10.3657 24.7071 11.1704 24.7071C11.9752 24.7071 12.6299 24.0523 12.6299 23.2476C12.6299 22.4429 11.9752 21.7881 11.1704 21.7881ZM11.1704 23.9161C10.8018 23.9161 10.502 23.6162 10.502 23.2476C10.502 22.8791 10.8019 22.5792 11.1704 22.5792C11.539 22.5792 11.8389 22.8791 11.8389 23.2476C11.8389 23.6162 11.539 23.9161 11.1704 23.9161ZM21.6395 3.45398H23.2567C23.3616 3.45398 23.4622 3.41231 23.5364 3.33814C23.6105 3.26397 23.6522 3.16337 23.6522 3.05847C23.6522 2.95358 23.6105 2.85298 23.5364 2.77881C23.4622 2.70463 23.3616 2.66296 23.2567 2.66296H21.6395C21.5346 2.66296 21.434 2.70463 21.3598 2.77881C21.2856 2.85298 21.2439 2.95358 21.2439 3.05847C21.2439 3.16337 21.2856 3.26397 21.3598 3.33814C21.434 3.41231 21.5346 3.45398 21.6395 3.45398ZM21.6395 4.83435H23.2567C23.3616 4.83435 23.4622 4.79269 23.5364 4.71851C23.6105 4.64434 23.6522 4.54374 23.6522 4.43885C23.6522 4.33395 23.6105 4.23335 23.5364 4.15918C23.4622 4.08501 23.3616 4.04334 23.2567 4.04334H21.6395C21.5346 4.04334 21.434 4.08501 21.3598 4.15918C21.2856 4.23335 21.2439 4.33395 21.2439 4.43885C21.2439 4.54374 21.2856 4.64434 21.3598 4.71851C21.434 4.79269 21.5346 4.83435 21.6395 4.83435Z" fill="#3E3E3E"/>
<path d="M1.86864 8.42899H4.52271C4.75632 8.42899 4.96025 8.595 5.00861 8.8285L6.89961 17.4274C7.17525 18.759 7.99548 19.9026 9.14636 20.6003C8.35044 21.2102 7.83585 22.1697 7.83585 23.2476C7.83585 25.0861 9.33156 26.5818 11.17 26.5818C13.0085 26.5818 14.5042 25.0861 14.5042 23.2476C14.5042 22.5246 14.2722 21.8552 13.8797 21.3084H18.6393C18.2468 21.8552 18.0147 22.5246 18.0147 23.2476C18.0147 25.0861 19.5105 26.5818 21.3489 26.5818C23.1874 26.5818 24.6831 25.0861 24.6831 23.2476C24.6831 22.422 24.3808 21.6662 23.882 21.0832C24.4682 20.7669 24.8572 20.1494 24.8572 19.4397C24.8572 18.5816 24.2756 17.8572 23.486 17.6388L24.5095 13.8267C24.5231 13.7764 24.5267 13.724 24.5201 13.6724C24.5135 13.6208 24.4967 13.571 24.4708 13.5258C24.4448 13.4807 24.4103 13.4411 24.369 13.4094C24.3277 13.3776 24.2806 13.3544 24.2304 13.3409C24.1801 13.3274 24.1277 13.3239 24.0761 13.3307C24.0245 13.3376 23.9747 13.3545 23.9297 13.3806C23.8846 13.4066 23.8452 13.4414 23.8136 13.4827C23.782 13.5241 23.7588 13.5713 23.7455 13.6216L22.6853 17.571H11.6662C11.1237 17.571 10.6649 17.1798 10.5584 16.665L10.1783 14.9368C10.1573 14.8412 10.1015 14.7568 10.0219 14.6999C9.9422 14.643 9.84426 14.6176 9.747 14.6288C9.51502 14.6553 9.35534 14.8775 9.40576 15.1067L9.78481 16.8302C9.96848 17.7178 10.7598 18.362 11.6663 18.362H22.9886C23.5828 18.362 24.0663 18.8455 24.0663 19.4397C24.0663 19.9535 23.7132 20.3838 23.225 20.4913C22.6577 20.1037 22.0067 19.9134 21.349 19.9134C20.6735 19.9134 20.009 20.1142 19.4358 20.5173H13.0833C12.5107 20.1146 11.8464 19.9134 11.1701 19.9134C10.7568 19.9139 10.3472 19.9907 9.96189 20.14C8.78597 19.5951 7.936 18.5319 7.67322 17.2623L5.78217 8.66339C5.65919 8.06923 5.12953 7.63797 4.52271 7.63797H1.86864C1.27443 7.63797 0.791016 7.1545 0.791016 6.56029C0.791016 5.96608 1.27443 5.48261 1.86864 5.48261H4.52271C6.1367 5.48261 7.55657 6.626 7.89159 8.22174C7.90351 8.27912 9.05623 13.5174 9.05781 13.5246C9.1038 13.7339 9.31284 13.8727 9.52789 13.8261L9.52905 13.826C9.57978 13.8148 9.62781 13.7938 9.67041 13.7641C9.713 13.7343 9.74933 13.6965 9.77731 13.6528C9.80529 13.609 9.82438 13.5602 9.83348 13.509C9.84259 13.4579 9.84153 13.4055 9.83037 13.3547L9.17626 10.3802H24.6156L24.1702 12.0396C24.1434 12.1407 24.1578 12.2484 24.2102 12.339C24.2627 12.4296 24.3489 12.4957 24.4499 12.5228C24.551 12.5499 24.6588 12.5359 24.7495 12.4838C24.8403 12.4316 24.9067 12.3456 24.9341 12.2446L25.4417 10.354C26.3248 10.2056 27 9.43616 27 8.51157C27 7.61688 26.3678 6.86742 25.5268 6.68543V2.89773C25.5268 1.8643 24.6861 1.02355 23.6526 1.02355H17.1117C16.7391 0.649822 16.224 0.418213 15.6559 0.418213H12.5051C11.371 0.418213 10.4483 1.34085 10.4483 2.47496V3.79332L7.92202 6.40815C7.14103 5.35869 5.89159 4.6916 4.52271 4.6916H1.86864C0.838266 4.69165 0 5.52991 0 6.56029C0 7.59067 0.838266 8.42899 1.86864 8.42899ZM11.1701 25.7908C9.76778 25.7908 8.62692 24.6499 8.62692 23.2476C8.62692 21.8681 9.745 20.707 11.1669 20.7045L11.17 20.7044C12.5691 20.7044 13.7132 21.8422 13.7132 23.2476C13.7133 24.6499 12.5724 25.7908 11.1701 25.7908ZM21.3489 25.7908C19.9466 25.7908 18.8058 24.6499 18.8058 23.2476C18.8058 21.8346 19.9575 20.7044 21.3489 20.7044C22.753 20.7044 23.8921 21.8469 23.8921 23.2476C23.8921 24.6499 22.7512 25.7908 21.3489 25.7908ZM19.3659 6.64293H15.2684L17.3172 4.52242L19.3659 6.64293ZM11.0117 4.34872H16.3851L14.1685 6.64293H8.79509L11.0117 4.34872ZM26.209 8.51162C26.209 9.10583 25.7256 9.58925 25.1313 9.58925H9.00229L8.68472 8.14549C8.66864 8.08073 8.61669 7.78594 8.48354 7.43394H25.1313C25.7256 7.43394 26.209 7.91736 26.209 8.51162ZM24.7358 2.89773V6.64293H20.4658L20.1597 6.3261V2.89773C20.1597 2.30046 20.6456 1.81457 21.2428 1.81457H23.6526C24.2499 1.81462 24.7358 2.30051 24.7358 2.89773ZM17.6047 1.81462H19.7142C19.4896 2.13115 19.3688 2.50965 19.3687 2.89778V5.5074L17.7127 3.79337V2.47496C17.7127 2.25906 17.678 2.03083 17.6047 1.81462ZM11.2393 2.47501C11.2393 1.77707 11.8071 1.20928 12.5051 1.20928H15.6559C16.3575 1.20928 16.9216 1.78113 16.9216 2.47501V3.55765H11.2393V2.47501Z" fill="#3E3E3E"/>
</g>
<defs>
<clipPath id="clip0_141_1866">
<rect width="27" height="27" fill="white"/>
</clipPath>
</defs>
</svg>
