<svg width="19" height="19" viewBox="0 0 19 19" fill="none" xmlns="http://www.w3.org/2000/svg">
<g clip-path="url(#clip0_112_150)">
<path d="M10.801 9.01048C10.8277 9.06253 10.8682 9.10622 10.9181 9.13672C10.9679 9.16723 11.0253 9.18337 11.0838 9.18337C11.1337 9.18334 11.1828 9.17152 11.2272 9.14886C11.2459 9.13936 13.1098 8.19252 14.0291 7.90214C14.1957 7.84926 14.2881 7.67128 14.2352 7.50474C14.2227 7.46504 14.2026 7.4282 14.1758 7.39632C14.1491 7.36444 14.1163 7.33814 14.0794 7.31894C14.0425 7.29973 14.0022 7.28799 13.9607 7.28439C13.9193 7.2808 13.8775 7.28541 13.8378 7.29797C12.8695 7.60419 11.0182 8.54468 10.9397 8.58458C10.7839 8.66373 10.7219 8.8544 10.801 9.01048ZM11.0838 5.38343C11.1337 5.38341 11.1828 5.37159 11.2272 5.34892C11.2459 5.33942 13.1098 4.39258 14.0291 4.10221C14.1957 4.04933 14.2881 3.87135 14.2352 3.7048C14.2227 3.66511 14.2026 3.62827 14.1758 3.59639C14.1491 3.56451 14.1163 3.53821 14.0794 3.519C14.0425 3.4998 14.0022 3.48806 13.9607 3.48446C13.9193 3.48086 13.8775 3.48548 13.8378 3.49803C12.8695 3.80426 11.0182 4.74475 10.9397 4.78464C10.7839 4.8638 10.7219 5.05443 10.801 5.21054C10.8277 5.26259 10.8682 5.30628 10.9181 5.33678C10.968 5.36729 11.0253 5.38343 11.0838 5.38343Z" fill="#3E3E3E"/>
<path d="M18.6832 4.75003C18.6416 4.75002 18.6004 4.7582 18.562 4.77411C18.5236 4.79002 18.4887 4.81334 18.4593 4.84275C18.4299 4.87215 18.4065 4.90707 18.3906 4.94549C18.3747 4.98392 18.3665 5.0251 18.3665 5.06669V17.4166C18.3665 17.9403 17.9403 18.3666 17.4166 18.3666H9.81661V17.6379C10.2783 17.4764 11.481 17.0999 12.6666 17.0999C15.4251 17.0999 17.2981 17.7108 17.3168 17.7171C17.3644 17.7327 17.415 17.7369 17.4645 17.7293C17.5141 17.7217 17.5611 17.7026 17.6018 17.6734C17.6425 17.6441 17.6756 17.6055 17.6985 17.5608C17.7213 17.5162 17.7332 17.4667 17.7332 17.4166V3.48339C17.7333 3.41132 17.7087 3.34139 17.6637 3.28518C17.6186 3.22897 17.5556 3.18985 17.4852 3.17431C17.4852 3.17431 17.237 3.1189 16.8126 3.04097C16.6413 3.00932 16.4757 3.12332 16.444 3.29495C16.4124 3.46721 16.526 3.6322 16.698 3.66385C16.8322 3.68846 16.9661 3.71411 17.0999 3.74081V16.9957C16.3823 16.8076 14.7889 16.4666 12.6666 16.4666C11.2868 16.4666 9.93154 16.9197 9.51225 17.0733C9.13952 16.9087 8.01285 16.4666 6.64991 16.4666C4.46871 16.4666 2.67197 16.8263 1.89995 17.0091V3.72846C2.53232 3.57297 4.40002 3.1667 6.64991 3.1667C7.80449 3.1667 8.79467 3.5261 9.18324 3.68857V16.1499C9.18326 16.206 9.19815 16.261 9.22639 16.3094C9.25464 16.3578 9.29522 16.3979 9.344 16.4255C9.39278 16.4531 9.44801 16.4672 9.50405 16.4665C9.56009 16.4658 9.61494 16.4502 9.66298 16.4213C9.69434 16.4027 12.8318 14.5286 15.6166 13.6005C15.6797 13.5795 15.7345 13.5391 15.7734 13.4852C15.8123 13.4313 15.8332 13.3665 15.8332 13.3V0.316723C15.8332 0.265535 15.8208 0.215113 15.797 0.16978C15.7732 0.124448 15.7388 0.0855558 15.6967 0.0564395C15.6547 0.0272282 15.6062 0.00865495 15.5554 0.00231417C15.5046 -0.0040266 15.453 0.00205451 15.4051 0.0200355C12.8714 0.970325 10.3078 2.56568 10.2821 2.58153C10.1339 2.6743 10.0886 2.86968 10.1814 3.01789C10.2738 3.16611 10.4692 3.21138 10.6177 3.11861C10.6411 3.10373 12.8714 1.71611 15.1998 0.779733V13.0733C13.0383 13.8244 10.7814 15.0508 9.81654 15.5999V3.48339C9.81653 3.42455 9.80015 3.36688 9.76922 3.31682C9.73829 3.26677 9.69404 3.22632 9.64142 3.19999C9.58695 3.17308 8.28928 2.5334 6.64991 2.5334C3.78854 2.5334 1.58868 3.15249 1.4962 3.17906C1.43006 3.19794 1.37187 3.23786 1.33044 3.29277C1.28901 3.34769 1.2666 3.4146 1.26661 3.48339V17.4166C1.2667 17.4656 1.27809 17.5139 1.2999 17.5577C1.32171 17.6015 1.35334 17.6397 1.39233 17.6693C1.44732 17.7109 1.51437 17.7334 1.5833 17.7333C1.61243 17.7333 1.64156 17.7292 1.67006 17.721C1.69191 17.7149 3.88165 17.1 6.64991 17.1C7.80764 17.1 8.79689 17.4603 9.18324 17.6221V18.3666H1.5833C1.05954 18.3666 0.633304 17.9404 0.633304 17.4166V5.06672C0.633304 4.89194 0.491436 4.75007 0.316652 4.75007C0.141868 4.75007 0 4.89194 0 5.06672V17.4166C0 18.2897 0.710268 19 1.58333 19H17.4166C18.2896 19 18.9999 18.2897 18.9999 17.4166V5.06672C18.9999 5.02513 18.9917 4.98395 18.9758 4.94552C18.9599 4.90709 18.9366 4.87218 18.9072 4.84277C18.8777 4.81336 18.8428 4.79003 18.8044 4.77412C18.766 4.75821 18.7248 4.75002 18.6832 4.75003Z" fill="#3E3E3E"/>
<path d="M10.8008 7.11057C10.8275 7.16262 10.868 7.20631 10.9179 7.23682C10.9678 7.26732 11.0251 7.28346 11.0836 7.28346C11.1335 7.28344 11.1826 7.27161 11.2271 7.24895C11.2457 7.23945 13.1097 6.29261 14.0289 6.00223C14.1955 5.94935 14.2879 5.77138 14.2351 5.60483C14.2226 5.56514 14.2024 5.52829 14.1757 5.49641C14.1489 5.46453 14.1162 5.43823 14.0792 5.41903C14.0423 5.39982 14.002 5.38808 13.9605 5.38449C13.9191 5.38089 13.8773 5.3855 13.8377 5.39806C12.8693 5.70428 11.0181 6.64477 10.9396 6.68467C10.7837 6.76382 10.7217 6.95449 10.8008 7.11057ZM10.8008 10.9105C10.8275 10.9626 10.868 11.0063 10.9179 11.0368C10.9678 11.0673 11.0251 11.0834 11.0836 11.0834C11.1335 11.0834 11.1826 11.0716 11.2271 11.0489C11.2457 11.0394 13.1097 10.0926 14.0289 9.8022C14.1955 9.74932 14.2879 9.57134 14.2351 9.4048C14.2226 9.36511 14.2024 9.32826 14.1757 9.29638C14.1489 9.2645 14.1162 9.2382 14.0792 9.219C14.0423 9.19979 14.002 9.18805 13.9605 9.18446C13.9191 9.18086 13.8773 9.18547 13.8377 9.19803C12.8693 9.50425 11.0181 10.4447 10.9396 10.4846C10.7837 10.5638 10.7217 10.7545 10.8008 10.9105ZM7.67221 5.87688C5.71682 5.41802 3.49476 6.0026 3.40136 6.02761C3.3607 6.03794 3.3225 6.05624 3.28898 6.08145C3.25545 6.10666 3.22726 6.13828 3.20606 6.17447C3.18485 6.21066 3.17104 6.2507 3.16544 6.29227C3.15983 6.33384 3.16254 6.37611 3.17341 6.41663C3.18427 6.45715 3.20308 6.4951 3.22873 6.52829C3.25438 6.56148 3.28637 6.58924 3.32284 6.60996C3.35931 6.63069 3.39954 6.64396 3.44118 6.64901C3.48282 6.65407 3.52505 6.6508 3.56542 6.63939C3.58665 6.63338 5.72602 6.07066 7.52785 6.49341C7.69726 6.533 7.86859 6.42754 7.90848 6.25717C7.94834 6.08714 7.84258 5.91677 7.67221 5.87688ZM7.67221 7.77686C5.71682 7.31834 3.49476 7.90259 3.40136 7.9276C3.3607 7.93792 3.3225 7.95622 3.28898 7.98143C3.25545 8.00664 3.22726 8.03826 3.20606 8.07445C3.18485 8.11064 3.17104 8.15069 3.16544 8.19226C3.15983 8.23383 3.16254 8.2761 3.17341 8.31662C3.18427 8.35713 3.20308 8.39508 3.22873 8.42827C3.25438 8.46146 3.28637 8.48922 3.32284 8.50995C3.35931 8.53067 3.39954 8.54395 3.44118 8.549C3.48282 8.55405 3.52505 8.55078 3.56542 8.53938C3.58665 8.53337 5.72602 7.97064 7.52785 8.39339C7.69726 8.43299 7.86859 8.32752 7.90848 8.15715C7.94834 7.98712 7.84258 7.81675 7.67221 7.77686ZM10.8008 12.8105C10.8275 12.8626 10.868 12.9063 10.9179 12.9368C10.9678 12.9673 11.0251 12.9834 11.0836 12.9834C11.1335 12.9834 11.1826 12.9716 11.2271 12.9489C11.2457 12.9394 13.1097 11.9926 14.0289 11.7022C14.1955 11.6493 14.2879 11.4713 14.2351 11.3048C14.2226 11.2651 14.2024 11.2283 14.1757 11.1964C14.1489 11.1645 14.1162 11.1382 14.0792 11.119C14.0423 11.0998 14.002 11.088 13.9605 11.0844C13.9191 11.0808 13.8773 11.0855 13.8377 11.098C12.8693 11.4042 11.0181 12.3447 10.9396 12.3846C10.7837 12.4638 10.7217 12.6544 10.8008 12.8105ZM7.67221 9.67685C5.71682 9.21833 3.49476 9.80224 3.40136 9.82758C3.32024 9.84935 3.25109 9.90244 3.20911 9.97518C3.16713 10.0479 3.15575 10.1344 3.17748 10.2155C3.19551 10.2828 3.23522 10.3423 3.29046 10.3848C3.3457 10.4272 3.41339 10.4503 3.48307 10.4505C3.51031 10.4505 3.53785 10.4467 3.56542 10.4394C3.58665 10.4334 5.72602 9.87063 7.52785 10.2934C7.69726 10.333 7.86859 10.2275 7.90848 10.0571C7.94834 9.88711 7.84258 9.71674 7.67221 9.67685ZM7.67221 13.4768C5.71682 13.018 3.49476 13.6025 3.40136 13.6276C3.32024 13.6493 3.25109 13.7024 3.20911 13.7752C3.16713 13.8479 3.15575 13.9343 3.17748 14.0155C3.19551 14.0828 3.23522 14.1423 3.29046 14.1847C3.3457 14.2272 3.41339 14.2503 3.48307 14.2504C3.51031 14.2504 3.53785 14.2466 3.56542 14.2393C3.58665 14.2333 5.72602 13.6706 7.52785 14.0933C7.69726 14.1326 7.86859 14.0275 7.90848 13.8571C7.94834 13.6871 7.84258 13.5167 7.67221 13.4768ZM7.67221 11.5768C5.71682 11.118 3.49476 11.7022 3.40136 11.7276C3.32024 11.7493 3.25109 11.8024 3.20911 11.8752C3.16713 11.9479 3.15575 12.0343 3.17748 12.1155C3.19551 12.1828 3.23522 12.2423 3.29046 12.2847C3.3457 12.3272 3.41339 12.3503 3.48307 12.3504C3.51031 12.3504 3.53785 12.3467 3.56542 12.3393C3.58665 12.3333 5.72602 11.7706 7.52785 12.1934C7.69726 12.233 7.86859 12.1275 7.90848 11.9571C7.94834 11.7871 7.84258 11.6167 7.67221 11.5768Z" fill="#3E3E3E"/>
</g>
<defs>
<clipPath id="clip0_112_150">
<rect width="19" height="19" fill="white"/>
</clipPath>
</defs>
</svg>
