<svg width="19" height="19" viewBox="0 0 19 19" fill="none" xmlns="http://www.w3.org/2000/svg">
<path fill-rule="evenodd" clip-rule="evenodd" d="M4.13676 0.0437685C2.70265 0.297645 1.55897 1.01932 0.813321 2.14089C0.238958 3.00478 0.0542563 3.57162 0.00707656 4.61472C-0.0630093 6.16837 0.3846 7.29714 1.47931 8.32712C2.52547 9.31139 3.66778 9.73974 5.083 9.67845L5.87241 9.64425L6.04421 10.1135C6.13865 10.3716 6.85276 12.3704 7.63114 14.5553C8.4096 16.7401 9.06294 18.544 9.08303 18.5639C9.16457 18.6447 9.59867 18.4268 9.57303 18.318C9.5579 18.254 8.85456 16.2613 8.01011 13.8898C7.16558 11.5183 6.49199 9.53318 6.51318 9.47841C6.53446 9.42364 6.6284 9.35897 6.72199 9.33475C6.90096 9.28836 6.84806 9.15385 8.82405 14.6885C9.16927 15.6554 9.21893 15.7446 9.39935 15.7231C9.50799 15.7101 9.63149 15.6651 9.67388 15.6232C9.71953 15.578 9.27739 14.2283 8.5861 12.303L7.42131 9.05904L7.74165 8.80575C8.6667 8.07426 9.33277 7.10041 9.59807 6.09176C9.80389 5.30914 9.76953 4.15836 9.51688 3.37049C8.89884 1.44275 7.22849 0.168379 5.11326 0.010669C4.8077 -0.0121028 4.3683 0.00279618 4.13676 0.0437685ZM5.72549 0.673845C7.52225 1.05106 8.87627 2.48535 9.13986 4.29067C9.43363 6.30322 8.10977 8.34499 6.12378 8.94238C5.28249 9.1955 4.02035 9.14234 3.24197 8.82099C0.928278 7.86585 -0.0971975 5.25234 0.967339 3.02366C1.52341 1.8595 2.6747 0.951678 3.94026 0.679263C4.63582 0.529595 5.03258 0.52841 5.72549 0.673845ZM4.02377 1.83021C3.46402 1.96193 2.64 2.55544 2.27307 3.09096C1.69623 3.93318 1.55461 5.06948 1.91538 5.96249C2.07427 6.35588 2.04538 6.33869 2.33145 6.20951C2.58889 6.09337 2.58692 6.10911 2.40991 5.59467C2.22008 5.0429 2.28786 4.2778 2.57641 3.71376C3.32658 2.24747 5.28813 1.8623 6.52284 2.93875C7.4284 3.72823 7.64977 4.86166 7.13165 6.05578C7.09396 6.14255 7.15669 6.23203 7.32379 6.32981L7.57182 6.4749L7.77242 6.03157C8.05191 5.41394 8.052 4.35873 7.77251 3.65839C7.51721 3.01892 6.83071 2.31621 6.16703 2.01527C5.6107 1.763 4.65881 1.6808 4.02377 1.83021ZM4.34402 3.45929C4.34402 3.47563 4.38317 3.60007 4.43095 3.73585C4.50676 3.95121 4.56198 3.98389 4.86369 3.99176C5.64814 4.01216 6.01566 4.91914 5.46172 5.46778C4.89975 6.02429 4.00214 5.63954 4.00214 4.84202C4.00214 4.5073 3.9771 4.45752 3.78453 4.40969C3.47163 4.3319 3.40385 4.40758 3.40385 4.83474C3.40385 6.31355 5.37318 6.85881 6.11933 5.58655C6.27822 5.31557 6.31096 5.15414 6.28651 4.76177C6.23429 3.92573 5.69711 3.42957 4.8442 3.42957C4.56907 3.42957 4.34402 3.44295 4.34402 3.45929ZM14.165 3.6749C13.1647 3.99184 12.2866 4.78352 11.8719 5.74231C11.6999 6.1401 11.5066 7.304 10.3245 15.0645C10.0684 16.7449 9.90825 18.0514 9.93859 18.2114C9.97013 18.3779 10.1118 18.5906 10.3006 18.7548C10.5843 19.0014 10.65 19.0213 11.0678 18.987C11.5866 18.9444 11.8924 18.7245 12.0302 18.295C12.0765 18.1505 12.5018 15.4857 12.9751 12.3731C13.4485 9.2606 13.8888 6.61306 13.9537 6.48972C14.2215 5.97976 14.694 5.71522 15.3368 5.71522C15.803 5.71522 16.1148 5.8654 16.4624 6.2576C16.8278 6.66969 16.8683 7.07916 16.6555 8.20768C16.4164 9.47596 16.4247 9.86875 16.6973 10.1898C17.0961 10.6591 17.7538 10.7294 18.2354 10.3542C18.5234 10.1298 18.5704 9.99742 18.7743 8.83708C19.0988 6.98926 19.0838 6.56523 18.6615 5.65165C17.8877 3.97754 15.9283 3.1161 14.165 3.6749ZM16.603 4.36847C16.8347 4.48402 17.0373 4.61718 17.0531 4.66433C17.0891 4.77133 15.6209 5.12586 15.1491 5.124C14.9496 5.12324 14.6297 5.20823 14.4013 5.32277L14.0022 5.52289L14.0034 5.08997C14.0058 4.19323 14.1466 4.09783 15.4125 4.1355C16.0308 4.15387 16.2643 4.19958 16.603 4.36847ZM13.4245 5.39777C13.4117 5.78184 13.346 6.36282 13.2785 6.68874C13.2111 7.01465 13.1252 7.46899 13.0876 7.69832L13.0193 8.11532L12.5888 7.52901C12.1788 6.9708 12.1613 6.92501 12.2228 6.57293C12.3124 6.05942 12.6098 5.48429 13.0054 5.05916C13.1895 4.86124 13.3644 4.69938 13.3941 4.69938C13.4236 4.69938 13.4374 5.0137 13.4245 5.39777ZM17.9656 5.56708C18.3472 6.22077 18.5976 7.47525 18.3739 7.61214C18.2827 7.66792 17.3268 6.60772 17.1963 6.3061C17.1432 6.18336 16.9776 5.94514 16.8282 5.77668L16.5567 5.47032L16.9248 5.37661C17.1272 5.32505 17.3313 5.26884 17.3783 5.25174C17.6308 5.15989 17.7725 5.236 17.9656 5.56708ZM2.6535 6.71396L2.4588 6.86245L2.75906 7.15078C2.92427 7.30933 3.07274 7.4226 3.08906 7.40254C3.39214 7.02862 3.39787 6.96911 3.15051 6.76298C2.86487 6.52485 2.89744 6.52806 2.6535 6.71396ZM3.76077 7.48651C3.65667 7.78229 3.68035 7.80566 4.15984 7.88159C4.51155 7.93729 4.51497 7.93535 4.51497 7.67808C4.51497 7.38654 4.49471 7.36647 4.11898 7.28673C3.87641 7.23526 3.84257 7.25414 3.76077 7.48651ZM5.39104 7.33371C5.15796 7.40034 5.11326 7.45358 5.11326 7.66471C5.11326 7.89226 5.13967 7.91613 5.39104 7.91494C5.80335 7.913 5.91113 7.81471 5.84207 7.50353C5.80985 7.35801 5.75762 7.24246 5.72617 7.2466C5.69463 7.25084 5.54378 7.29003 5.39104 7.33371ZM18.1589 9.03931C18.0005 9.94155 17.6677 10.2494 17.2094 9.91759C17.0125 9.77495 17.0124 9.56518 17.2088 8.3962L17.3628 7.47949L17.8185 7.93086L18.2743 8.38223L18.1589 9.03931ZM12.4978 8.38325L12.9068 8.93494L12.757 9.94062L12.6071 10.9464L12.1661 10.3502L11.7252 9.75396L11.8758 8.81388C11.9586 8.2969 12.0286 7.86441 12.0313 7.85272C12.0461 7.7905 12.1248 7.87998 12.4978 8.38325ZM12.3228 12.7526L12.1646 13.7645L11.7297 13.1657L11.2948 12.5667L11.4469 11.6171C11.5306 11.0948 11.6012 10.6522 11.604 10.6337C11.6068 10.6151 11.8052 10.8566 12.045 11.1703L12.4809 11.7406L12.3228 12.7526ZM2.81863 11.8829C2.19119 12.1974 1.68974 12.4906 1.70435 12.5346C1.73358 12.6226 2.81085 13.4187 2.90077 13.4187C2.93162 13.4187 3.0235 13.318 3.10496 13.1949C3.22709 13.0102 3.23257 12.9594 3.13615 12.9043C3.07179 12.8677 2.94436 12.7825 2.85291 12.7151C2.69436 12.5982 2.70307 12.5842 3.0418 12.413C3.23718 12.3143 3.41778 12.2335 3.44316 12.2335C3.46855 12.2335 3.48932 12.3859 3.48932 12.5722C3.48932 12.8885 3.50539 12.9108 3.73453 12.9108C3.95154 12.9108 3.9859 12.8742 4.03274 12.5933C4.10676 12.1497 4.10069 11.3014 4.02351 11.3068C3.98821 11.3092 3.44607 11.5685 2.81863 11.8829ZM3.50368 13.2617C3.03359 13.4923 2.70607 13.9722 2.6588 14.5001C2.62872 14.836 2.67718 15.0099 2.96085 15.5847C3.14667 15.9613 3.40171 16.3496 3.52761 16.4476C4.30283 17.0516 5.44942 16.802 5.87215 15.9371C6.11113 15.4483 6.10087 15.0702 5.83232 14.4662C5.52719 13.7798 5.23728 13.4279 4.82403 13.242C4.36061 13.0336 3.95676 13.0396 3.50368 13.2617ZM12.0301 14.6867C12.0266 14.7575 11.9593 15.2076 11.8805 15.6869L11.7372 16.5583L11.2994 15.9781L10.8617 15.3979L11.0166 14.4295C11.1019 13.8968 11.1739 13.4465 11.1766 13.4289C11.1914 13.3344 12.0354 14.5783 12.0301 14.6867ZM4.7648 13.8918C4.90941 14.0124 5.02779 14.1454 5.02779 14.1874C5.02779 14.2293 4.64676 14.4531 4.18103 14.6846C3.25616 15.1442 3.23291 15.1408 3.23291 14.5461C3.23291 14.3203 3.30316 14.1787 3.52351 13.9605C3.90035 13.5872 4.3683 13.5613 4.7648 13.8918ZM15.011 13.8725C13.5752 14.2669 12.8515 15.8561 13.5274 17.1309C13.6868 17.4316 14.2336 17.9375 14.593 18.1169C14.7534 18.197 15.1038 18.2822 15.3718 18.3063C16.7056 18.426 17.8484 17.3812 17.8484 16.042C17.8484 15.5713 17.8204 15.5345 17.5225 15.6131C17.3129 15.6684 17.2884 15.719 17.2421 16.1927C17.1863 16.7635 16.9569 17.1461 16.4597 17.4973C16.2311 17.6588 16.073 17.6937 15.5694 17.6937C15.0267 17.6937 14.9158 17.6648 14.5941 17.4397C13.6996 16.814 13.6005 15.6567 14.3755 14.889C14.7861 14.4824 15.2995 14.3076 15.8449 14.3886C16.1821 14.4386 16.2076 14.4279 16.2617 14.2144C16.2934 14.0892 16.2884 13.9573 16.2505 13.9214C16.1148 13.7923 15.4049 13.7643 15.011 13.8725ZM16.7981 14.4809C16.6498 14.6805 16.6509 14.6942 16.8356 14.9415C17.059 15.2409 17.0591 15.2409 17.3356 15.0286L17.5492 14.8645L17.2501 14.5699L16.9509 14.2753L16.7981 14.4809ZM5.45386 15.3009C5.45574 15.7642 5.1001 16.1308 4.59377 16.1873C4.26394 16.2241 4.16821 16.1973 3.93411 16.0022C3.78351 15.8766 3.66026 15.7396 3.66026 15.6977C3.66026 15.6557 4.03531 15.4347 4.4936 15.2066C5.39711 14.7568 5.45164 14.7622 5.45386 15.3009ZM14.7852 15.4967C14.4037 16.3258 15.1406 17.1739 15.9986 16.8935C16.3895 16.7657 16.4502 16.6666 16.2632 16.4618C16.1477 16.3354 16.0442 16.31 15.802 16.3483C15.4033 16.4115 15.2426 16.2449 15.3094 15.8378C15.3438 15.6273 15.3162 15.5133 15.2069 15.4153C14.998 15.2282 14.9 15.247 14.7852 15.4967ZM11.2153 16.8479C11.5971 17.3629 11.6199 17.4225 11.5644 17.758C11.4873 18.2233 11.3115 18.4133 10.9577 18.4133C10.5156 18.4133 10.4497 18.2062 10.582 17.2313C10.6818 16.4956 10.7252 16.2969 10.7856 16.2969C10.7973 16.2969 10.9906 16.5449 11.2153 16.8479ZM5.59454 16.6728C5.46292 16.8717 5.46779 16.887 5.72643 17.0875L5.99498 17.2957L5.64301 17.4735C5.44942 17.5714 5.27027 17.6514 5.24488 17.6514C5.2195 17.6514 5.19873 17.499 5.19873 17.3128C5.19873 16.9965 5.18258 16.9741 4.95394 16.9741C4.72753 16.9741 4.70505 17.0036 4.6548 17.3669C4.5895 17.8387 4.58309 18.5826 4.64428 18.5826C4.73172 18.5826 7.09652 17.3865 7.06686 17.3573C6.95678 17.249 5.83267 16.4662 5.78728 16.4662C5.75643 16.4662 5.66976 16.5592 5.59454 16.6728Z" fill="#3E3E3E"/>
</svg>
