<svg width="23" height="23" viewBox="0 0 23 23" fill="none" xmlns="http://www.w3.org/2000/svg">
<path d="M6.10938 5.39062H14.0156C14.1109 5.39062 14.2023 5.35276 14.2697 5.28537C14.3371 5.21797 14.375 5.12656 14.375 5.03125C14.375 4.93594 14.3371 4.84453 14.2697 4.77713C14.2023 4.70974 14.1109 4.67188 14.0156 4.67188H6.10938C6.01406 4.67188 5.92265 4.70974 5.85526 4.77713C5.78786 4.84453 5.75 4.93594 5.75 5.03125C5.75 5.12656 5.78786 5.21797 5.85526 5.28537C5.92265 5.35276 6.01406 5.39062 6.10938 5.39062ZM6.10938 7.54688H14.0156C14.1109 7.54688 14.2023 7.50901 14.2697 7.44162C14.3371 7.37422 14.375 7.28281 14.375 7.1875C14.375 7.09219 14.3371 7.00078 14.2697 6.93338C14.2023 6.86599 14.1109 6.82812 14.0156 6.82812H6.10938C6.01406 6.82812 5.92265 6.86599 5.85526 6.93338C5.78786 7.00078 5.75 7.09219 5.75 7.1875C5.75 7.28281 5.78786 7.37422 5.85526 7.44162C5.92265 7.50901 6.01406 7.54688 6.10938 7.54688ZM6.10938 9.70312H14.0156C14.1109 9.70312 14.2023 9.66526 14.2697 9.59787C14.3371 9.53047 14.375 9.43906 14.375 9.34375C14.375 9.24844 14.3371 9.15703 14.2697 9.08963C14.2023 9.02224 14.1109 8.98438 14.0156 8.98438H6.10938C6.01406 8.98438 5.92265 9.02224 5.85526 9.08963C5.78786 9.15703 5.75 9.24844 5.75 9.34375C5.75 9.43906 5.78786 9.53047 5.85526 9.59787C5.92265 9.66526 6.01406 9.70312 6.10938 9.70312ZM6.10938 11.8594H14.0156C14.1109 11.8594 14.2023 11.8215 14.2697 11.7541C14.3371 11.6867 14.375 11.5953 14.375 11.5C14.375 11.4047 14.3371 11.3133 14.2697 11.2459C14.2023 11.1785 14.1109 11.1406 14.0156 11.1406H6.10938C6.01406 11.1406 5.92265 11.1785 5.85526 11.2459C5.78786 11.3133 5.75 11.4047 5.75 11.5C5.75 11.5953 5.78786 11.6867 5.85526 11.7541C5.92265 11.8215 6.01406 11.8594 6.10938 11.8594ZM6.10938 14.0156H8.98438C9.07969 14.0156 9.1711 13.9778 9.23849 13.9104C9.30589 13.843 9.34375 13.7516 9.34375 13.6562C9.34375 13.5609 9.30589 13.4695 9.23849 13.4021C9.1711 13.3347 9.07969 13.2969 8.98438 13.2969H6.10938C6.01406 13.2969 5.92265 13.3347 5.85526 13.4021C5.78786 13.4695 5.75 13.5609 5.75 13.6562C5.75 13.7516 5.78786 13.843 5.85526 13.9104C5.92265 13.9778 6.01406 14.0156 6.10938 14.0156Z" fill="#3E3E3E"/>
<path d="M20.3107 9.20966C20.0639 9.06537 19.77 9.02488 19.4934 9.09706C19.2168 9.16925 18.9802 9.34821 18.8354 9.59468L17.9688 11.0732V2.15625C17.9688 2.06094 17.9309 1.96953 17.8635 1.90213C17.7962 1.83474 17.7047 1.79688 17.6094 1.79688H14.8833C14.8833 1.79688 13.8035 0.697187 13.7603 0.734203C13.7266 0.723971 13.6915 0.718764 13.6563 0.71875H3.23443C3.13912 0.71875 3.04771 0.756613 2.98032 0.824008C2.91292 0.891404 2.87506 0.982813 2.87506 1.07812V2.20176C2.56636 2.28133 2.29288 2.46126 2.09762 2.71324C1.90235 2.96522 1.79639 3.27497 1.79639 3.59375C1.79639 3.91253 1.90235 4.22228 2.09762 4.47426C2.29288 4.72624 2.56636 4.90617 2.87506 4.98574V5.79551C2.56636 5.87508 2.29288 6.05501 2.09762 6.30699C1.90235 6.55897 1.79639 6.86872 1.79639 7.1875C1.79639 7.50628 1.90235 7.81603 2.09762 8.06801C2.29288 8.31999 2.56636 8.49992 2.87506 8.57949V9.38926C2.56636 9.46883 2.29288 9.64876 2.09762 9.90074C1.90235 10.1527 1.79639 10.4625 1.79639 10.7812C1.79639 11.1 1.90235 11.4098 2.09762 11.6618C2.29288 11.9137 2.56636 12.0937 2.87506 12.1732V12.6236C2.56636 12.7032 2.29288 12.8831 2.09762 13.1351C1.90235 13.3871 1.79639 13.6968 1.79639 14.0156C1.79639 14.3344 1.90235 14.6441 2.09762 14.8961C2.29288 15.1481 2.56636 15.328 2.87506 15.4076V17.6094C2.87506 17.7047 2.91292 17.7961 2.98032 17.8635C3.04771 17.9309 3.13912 17.9688 3.23443 17.9688H3.59381V19.0469C3.59381 19.1422 3.63167 19.2336 3.69907 19.301C3.76646 19.3684 3.85787 19.4062 3.95318 19.4062H13.0854L12.8392 19.8265C12.8171 19.8642 12.8022 19.9056 12.7951 19.9487C12.7948 19.9507 12.7942 19.9525 12.7939 19.9546L12.793 19.9605V19.9618L12.5055 21.8683C12.4948 21.9394 12.5056 22.012 12.5365 22.0768C12.5675 22.1416 12.6171 22.1956 12.6791 22.2319C12.7411 22.2683 12.8125 22.2852 12.8842 22.2805C12.9559 22.2758 13.0245 22.2498 13.0812 22.2057L14.6098 21.0189C14.7077 20.9429 14.7556 20.8964 14.748 20.8339L15.5846 19.4062H17.6094C17.7047 19.4062 17.7962 19.3684 17.8635 19.301C17.9309 19.2336 17.9688 19.1422 17.9688 19.0469V15.338L20.6956 10.6849C20.8398 10.4381 20.8803 10.1443 20.8081 9.86769C20.736 9.59113 20.5571 9.35448 20.3107 9.20966ZM19.6748 9.79207C19.7436 9.77412 19.8161 9.77697 19.8833 9.80026C19.9504 9.82354 20.0092 9.86622 20.0521 9.92289C20.095 9.97956 20.1201 10.0477 20.1243 10.1186C20.1285 10.1896 20.1115 10.2602 20.0756 10.3215L19.8939 10.6315L19.274 10.2681L19.4557 9.9581C19.4795 9.91732 19.511 9.88164 19.5486 9.85314C19.5862 9.82465 19.6291 9.80389 19.6748 9.79207ZM14.261 20.2432L13.6411 19.8798L18.3653 11.8185L18.9852 12.1819L14.261 20.2432ZM14.0157 1.94575L15.3043 3.23438H14.0157V1.94575ZM18.7287 11.1983L18.9104 10.8883L19.5305 11.2518L19.3488 11.5617L18.7287 11.1983ZM17.2501 2.51562V12.2188C17.2501 12.2421 17.2524 12.2653 17.2569 12.2882L16.5313 13.5263V3.59375C16.5314 3.54663 16.5221 3.49996 16.5041 3.45642C16.4861 3.41287 16.4597 3.37331 16.4264 3.33999L16.4261 3.33963L15.6021 2.51562H17.2501ZM3.59381 1.4375H13.2969V3.59375C13.2969 3.68906 13.3348 3.78047 13.4022 3.84787C13.4696 3.91526 13.561 3.95312 13.6563 3.95312H15.8126V14.7528L14.3491 17.25H3.59381V15.4077C3.8426 15.3436 4.06966 15.214 4.25132 15.0323C4.43297 14.8506 4.56257 14.6235 4.62661 14.3747C4.65036 14.2824 4.63647 14.1844 4.58798 14.1023C4.53948 14.0202 4.46037 13.9608 4.36804 13.937C4.32232 13.9252 4.27473 13.9226 4.22799 13.9292C4.18125 13.9359 4.13627 13.9516 4.09562 13.9756C4.01354 14.0241 3.95407 14.1032 3.93032 14.1956C3.9065 14.288 3.86447 14.3747 3.80668 14.4506C3.7489 14.5266 3.67652 14.5902 3.59381 14.6378V12.1733C3.8426 12.1092 4.06966 11.9796 4.25132 11.7979C4.43297 11.6162 4.56257 11.3892 4.62661 11.1404C4.65036 11.048 4.63647 10.95 4.58798 10.8679C4.53948 10.7859 4.46037 10.7264 4.36804 10.7026C4.2757 10.6789 4.17771 10.6928 4.09562 10.7413C4.01354 10.7898 3.95407 10.8689 3.93032 10.9612C3.9065 11.0536 3.86447 11.1403 3.80668 11.2163C3.7489 11.2922 3.67652 11.3558 3.59381 11.4034V8.57954C3.8426 8.51547 4.06966 8.38584 4.25132 8.20416C4.43297 8.02249 4.56257 7.79541 4.62661 7.54661C4.65036 7.45427 4.63647 7.35628 4.58798 7.27419C4.53948 7.19211 4.46037 7.13264 4.36804 7.10889C4.2757 7.08513 4.17771 7.09903 4.09562 7.14752C4.01354 7.19601 3.95407 7.27512 3.93032 7.36746C3.9065 7.45986 3.86447 7.54658 3.80668 7.62252C3.7489 7.69846 3.67652 7.76208 3.59381 7.80967V4.98579C3.8426 4.92172 4.06966 4.79209 4.25132 4.61041C4.43297 4.42874 4.56257 4.20166 4.62661 3.95286C4.65036 3.86052 4.63647 3.76253 4.58798 3.68044C4.53948 3.59836 4.46037 3.53889 4.36804 3.51514C4.2757 3.49138 4.17771 3.50528 4.09562 3.55377C4.01354 3.60226 3.95407 3.68137 3.93032 3.77371C3.9065 3.86611 3.86447 3.95283 3.80668 4.02877C3.7489 4.10471 3.67652 4.16833 3.59381 4.21592V1.4375ZM2.51568 3.59375C2.51585 3.46775 2.54914 3.344 2.61222 3.23492C2.67529 3.12584 2.76593 3.03526 2.87506 2.97226V4.21524C2.76593 4.15224 2.67529 4.06166 2.61222 3.95258C2.54914 3.8435 2.51585 3.71975 2.51568 3.59375ZM2.51568 7.1875C2.51585 7.0615 2.54914 6.93775 2.61222 6.82867C2.67529 6.71959 2.76593 6.62901 2.87506 6.56601V7.80899C2.76593 7.74599 2.67529 7.65541 2.61222 7.54633C2.54914 7.43725 2.51585 7.3135 2.51568 7.1875ZM2.51568 10.7812C2.51585 10.6552 2.54914 10.5315 2.61222 10.4224C2.67529 10.3133 2.76593 10.2228 2.87506 10.1598V11.4027C2.76593 11.3397 2.67529 11.2492 2.61222 11.1401C2.54914 11.031 2.51585 10.9073 2.51568 10.7812ZM2.51568 14.0156C2.51585 13.8896 2.54914 13.7659 2.61222 13.6568C2.67529 13.5477 2.76593 13.4571 2.87506 13.3941V14.6371C2.76593 14.5741 2.67529 14.4835 2.61222 14.3745C2.54914 14.2654 2.51585 14.1416 2.51568 14.0156ZM4.31256 18.6875V17.9688H13.9279L13.5066 18.6875H4.31256ZM13.4255 20.5866L13.7497 20.7767L13.3499 21.087L13.4255 20.5866ZM17.2501 18.6875H16.0057L17.2501 16.5644V18.6875Z" fill="#3E3E3E"/>
</svg>
