<svg width="19" height="19" viewBox="0 0 19 19" fill="none" xmlns="http://www.w3.org/2000/svg">
<g clip-path="url(#clip0_112_122)">
<path d="M18.6279 12.1713H17.7256L18.0962 9.76085C18.1035 9.71309 18.1009 9.66508 18.09 9.6191C18.1001 9.60462 18.1104 9.59023 18.1203 9.57572C18.9062 8.41895 18.9958 7.12494 18.9992 7.07043C19.0076 6.93632 18.9429 6.8081 18.83 6.73526C18.717 6.66241 18.5735 6.65625 18.4549 6.71938C18.4152 6.74038 17.6841 7.13389 16.9935 7.83874C16.8622 6.56029 16.3015 5.59856 16.2747 5.55314C16.2079 5.44029 16.0864 5.37108 15.9553 5.37108C15.9553 5.37108 15.9551 5.37108 15.9551 5.37108C15.8238 5.3712 15.7024 5.44059 15.6357 5.55362C15.6091 5.59882 15.0562 6.5499 14.9222 7.81711C14.229 7.118 13.4941 6.73708 13.4542 6.7167C13.3355 6.65603 13.1933 6.66371 13.0819 6.73693C12.9704 6.81007 12.9067 6.93739 12.9151 7.07047C12.9185 7.12502 13.0081 8.41895 13.794 9.57575C13.8038 9.59026 13.8142 9.60466 13.8243 9.61913C13.8134 9.66511 13.8108 9.71309 13.8181 9.76089L14.1887 12.1714H12.9136V6.46165C12.9136 6.25673 12.7475 6.0906 12.5425 6.0906H10.9724C10.7675 6.0906 10.6013 6.25677 10.6013 6.46165C10.6013 6.66653 10.7675 6.83275 10.9724 6.83275H12.1714V12.1714H6.82804V6.83271H7.85541C8.06036 6.83271 8.2265 6.66653 8.2265 6.46162C8.2265 6.2567 8.06036 6.09056 7.85541 6.09056H6.82804V0.371459C6.82804 0.166542 6.6619 0.000366211 6.45695 0.000366211H0.371093C0.166138 0.000366211 0 0.166542 0 0.371459V6.46165V6.46677V18.6283C0 18.8332 0.166138 18.9994 0.371093 18.9994H18.6279C18.8329 18.9994 18.999 18.8332 18.999 18.6283V12.5424C18.999 12.3375 18.8329 12.1713 18.6279 12.1713ZM4.45386 18.2388C4.45386 18.2489 4.44558 18.2572 4.43542 18.2572H0.761557C0.751389 18.2572 0.743114 18.2489 0.743114 18.2388V17.1481C0.743114 17.1379 0.751389 17.1296 0.761557 17.1296H3.25449H4.43542C4.44558 17.1296 4.45386 17.1379 4.45386 17.1481V18.2388ZM0.743114 16.3691V15.6529C0.743114 15.6427 0.751389 15.6344 0.761557 15.6344H3.25449C3.26465 15.6344 3.27293 15.6427 3.27293 15.6529V16.3691C3.27293 16.3793 3.26465 16.3875 3.25449 16.3875H0.761557C0.751389 16.3875 0.743114 16.3793 0.743114 16.3691ZM6.08552 18.2572H5.19508C5.19523 18.251 5.19601 18.245 5.19601 18.2387V17.1481C5.19601 16.7288 4.85479 16.3875 4.43542 16.3875H4.01415C4.0143 16.3813 4.01508 16.3753 4.01508 16.3691V15.6529C4.01508 15.2335 3.67386 14.8923 3.25449 14.8923H0.761557C0.754989 14.8923 0.74868 14.8931 0.742149 14.8933V12.9134H6.08552V18.2572ZM1.92972 9.87096H1.8555V8.83193H4.97254V9.87096H4.89832H1.92972ZM4.52726 10.6131V12.1713H2.30081V10.6131H4.52726ZM6.08552 12.1713H5.26941V10.6131H5.34363C5.54858 10.6131 5.71468 10.4469 5.71468 10.242V8.46084C5.71468 8.25592 5.54855 8.08979 5.34363 8.08979H1.48445C1.27949 8.08979 1.11339 8.25596 1.11339 8.46084V10.242C1.11339 10.4469 1.27953 10.6131 1.48445 10.6131H1.55867V12.1713H0.742149V6.83783H6.08552V12.1713ZM4.26393 4.19958C4.51717 4.48551 4.65659 4.85322 4.65659 5.23512V6.0906H2.17145V5.23512C2.17145 4.85326 2.31091 4.48551 2.5641 4.19962C2.93761 3.77794 3.14334 3.23541 3.14334 2.67205V2.11552H3.68473V2.67205C3.68473 3.23537 3.89043 3.77787 4.26393 4.19958ZM6.08589 6.09056H5.39877V5.23508C5.39877 4.67172 5.19308 4.12922 4.81953 3.70747C4.56634 3.42162 4.42692 3.05391 4.42692 2.67201V1.74443C4.42692 1.53951 4.26078 1.37334 4.05582 1.37334H2.77225C2.5673 1.37334 2.40116 1.53951 2.40116 1.74443V2.67205C2.40116 3.05394 2.2617 3.42166 2.0085 3.70755C1.635 4.12926 1.4293 4.6718 1.4293 5.23512V6.0906H0.742149V0.742515H6.08589V6.09056ZM8.81595 18.2388C8.81595 18.2489 8.80767 18.2572 8.7975 18.2572H8.08133C8.07116 18.2572 8.06289 18.2489 8.06289 18.2388V15.7458C8.06289 15.7356 8.07116 15.7274 8.08133 15.7274H8.7975C8.80767 15.7274 8.81595 15.7356 8.81595 15.7458V18.2388ZM10.3017 18.2388C10.3017 18.2489 10.2934 18.2572 10.2832 18.2572H9.57654C9.56637 18.2572 9.5581 18.2489 9.5581 18.2388V15.7458V14.5649C9.5581 14.5547 9.56637 14.5465 9.57654 14.5465H10.2832C10.2934 14.5465 10.3017 14.5547 10.3017 14.5649V18.2388ZM10.2832 13.8043H9.57654C9.15717 13.8043 8.81595 14.1455 8.81595 14.5649V14.9861C8.80975 14.986 8.80374 14.9852 8.7975 14.9852H8.08133C7.66196 14.9852 7.32074 15.3264 7.32074 15.7458V18.2387C7.32074 18.245 7.32152 18.251 7.32167 18.2572H6.82804V12.9134H12.171V13.8052C12.1649 13.8051 12.159 13.8043 12.1529 13.8043H11.0622C10.9198 13.8043 10.7869 13.8444 10.6728 13.9128C10.5587 13.8444 10.4257 13.8043 10.2832 13.8043ZM12.171 18.2408C12.1699 18.25 12.1624 18.2572 12.1529 18.2572H11.0623C11.0521 18.2572 11.0438 18.2489 11.0438 18.2388V14.5649C11.0438 14.5547 11.0521 14.5465 11.0623 14.5465H12.153C12.1624 14.5465 12.1699 14.5537 12.171 14.5629L12.171 18.2408ZM16.9784 9.01778C16.9934 9.00234 17.0075 8.98564 17.0201 8.9672C17.3389 8.49791 17.7522 8.1178 18.1006 7.84683C17.9912 8.23689 17.8087 8.71378 17.5064 9.15872C17.4666 9.21731 17.4245 9.27569 17.3804 9.33339H16.929C16.9486 9.22767 16.9651 9.12243 16.9784 9.01778ZM15.9566 6.64327C16.1175 7.08383 16.2786 7.69201 16.279 8.36105C16.2792 8.67556 16.2437 9.00149 16.1732 9.33339H15.7423C15.6714 9.00175 15.6355 8.67596 15.6353 8.36165C15.6348 7.69535 15.7959 7.0855 15.9566 6.64327ZM15.6667 10.0755H16.2477H16.4656H17.297L16.9747 12.1713H14.9395L14.6173 10.0755H15.4503H15.6667ZM13.8088 7.82946C14.16 8.09576 14.5789 8.47368 14.9002 8.94671C14.9102 8.96141 14.9213 8.97477 14.9329 8.98753C14.9469 9.1022 14.9647 9.21754 14.9862 9.33347H14.5339C14.4898 9.27576 14.4476 9.21739 14.4078 9.15879C14.1011 8.7071 13.9176 8.22256 13.8088 7.82946ZM18.2569 18.2572H14.9182V15.771C14.9182 15.5661 14.752 15.3999 14.5471 15.3999C14.3421 15.3999 14.176 15.5661 14.176 15.771V18.2572H12.9135V18.2388V14.5649V12.9134H18.2569V18.2572Z" fill="#3E3E3E"/>
<path d="M9.76285 6.19931C9.69383 6.13028 9.59809 6.09058 9.50049 6.09058C9.40289 6.09058 9.30715 6.13025 9.23812 6.19931C9.1691 6.26833 9.12939 6.36407 9.12939 6.46167C9.12939 6.55964 9.1691 6.65501 9.23812 6.72399C9.30715 6.79335 9.40289 6.8331 9.50049 6.8331C9.59809 6.8331 9.69383 6.79339 9.76285 6.72399C9.83187 6.65501 9.87158 6.5596 9.87158 6.46167C9.87158 6.36407 9.83187 6.26833 9.76285 6.19931Z" fill="#3E3E3E"/>
<path d="M14.8092 13.9965C14.7402 13.9275 14.6445 13.8878 14.5469 13.8878C14.4493 13.8878 14.3535 13.9275 14.2845 13.9965C14.2155 14.0656 14.1758 14.1613 14.1758 14.2589C14.1758 14.3565 14.2155 14.4522 14.2845 14.5212C14.3535 14.5903 14.4493 14.63 14.5469 14.63C14.6445 14.63 14.7402 14.5903 14.8092 14.5212C14.8783 14.4522 14.918 14.3565 14.918 14.2589C14.918 14.1613 14.8783 14.0656 14.8092 13.9965Z" fill="#3E3E3E"/>
</g>
<defs>
<clipPath id="clip0_112_122">
<rect width="19" height="19" fill="white"/>
</clipPath>
</defs>
</svg>
