<svg width="18" height="19" viewBox="0 0 18 19" fill="none" xmlns="http://www.w3.org/2000/svg">
<path fill-rule="evenodd" clip-rule="evenodd" d="M4.87489 0.092248C4.4381 0.251305 4.08063 0.561424 3.89942 0.938535C3.73679 1.27691 3.73648 1.28941 3.73671 9.48066C3.73694 16.7385 3.75082 17.7173 3.85726 17.974C4.01658 18.358 4.32341 18.6779 4.70163 18.8543C4.98904 18.9882 5.28077 18.9982 9.00107 18.9997C13.355 19.0016 13.3049 19.0062 13.787 18.551C13.9089 18.4358 14.073 18.2019 14.1514 18.0311C14.2875 17.7351 14.2943 17.3365 14.2959 9.52041L14.2976 1.32023L14.0822 0.905078C13.9254 0.602799 13.7646 0.426121 13.491 0.25573L13.1151 0.0216852L9.13965 0.00429685C5.95195 -0.00959835 5.10674 0.00779004 4.87489 0.092248ZM13.1163 0.731893C13.4222 0.878142 13.5956 1.10947 13.6733 1.4754C13.7949 2.04736 14.2089 2.00117 8.96384 2.00117H4.25798L4.31031 1.67164C4.38269 1.21613 4.58162 0.900032 4.89693 0.739888C5.14057 0.616073 5.50175 0.604119 9.00623 0.604041C12.4167 0.603886 12.8784 0.618247 13.1163 0.731893ZM13.7377 9.02639L13.7384 15.4306H9.00801H4.27771V9.02639V2.62218H9.00739H13.7371L13.7377 9.02639ZM0.770373 6.56174C0.660771 6.67919 0.442646 7.03534 0.285566 7.3533C0.00184981 7.92759 0 7.9376 0 8.90584C0 9.86515 0.00431628 9.88945 0.278398 10.4673C0.43147 10.7902 0.697459 11.2034 0.869492 11.3855C1.13409 11.6657 1.20554 11.7041 1.33357 11.6351C1.59971 11.4917 1.57928 11.3425 1.23213 10.8922C0.739157 10.2528 0.554869 9.71385 0.554329 8.90995C0.553867 8.1697 0.696534 7.70208 1.10565 7.10327C1.38351 6.69642 1.39469 6.63844 1.22774 6.47022C1.06164 6.30293 1.0006 6.3152 0.770373 6.56174ZM16.4997 6.47022C16.3287 6.64247 16.3443 6.7069 16.6463 7.07812C16.7935 7.25906 17.0103 7.61421 17.128 7.86742C17.3194 8.27908 17.3421 8.41399 17.3421 9.14283C17.3421 9.86756 17.3189 10.0078 17.1325 10.4083C17.0173 10.6561 16.8526 10.949 16.7664 11.0592C16.5663 11.3155 16.5672 11.5209 16.7691 11.6296C16.9053 11.703 16.9637 11.6776 17.1737 11.453C17.4632 11.1434 17.806 10.4664 17.9155 9.9878C18.1733 8.86144 17.8267 7.50072 17.0724 6.67787C16.7387 6.31396 16.6771 6.2916 16.4997 6.47022ZM2.06201 8.07546C1.89869 8.28265 1.79417 8.78288 1.8415 9.13057C1.90516 9.59873 2.22518 10.0926 2.44353 10.0598C2.73388 10.0161 2.78853 9.80677 2.59846 9.46615C2.40716 9.12335 2.38488 8.84661 2.51861 8.47423C2.59036 8.27442 2.58836 8.1961 2.5092 8.09999C2.38873 7.9539 2.16737 7.94171 2.06201 8.07546ZM15.2739 8.03021C15.1842 8.12041 15.2176 8.30749 15.3859 8.65759C15.5107 8.91709 15.5359 9.06528 15.4924 9.28365C15.4611 9.441 15.431 9.67458 15.4253 9.80266C15.4167 10.0009 15.4461 10.0391 15.6227 10.0597C16.1015 10.1153 16.2697 8.99464 15.8825 8.32907C15.7347 8.07515 15.6297 7.97843 15.5019 7.97843C15.4047 7.97843 15.3021 8.00172 15.2739 8.03021ZM13.7426 16.5833C13.7553 16.8544 13.7273 17.2631 13.6802 17.4915C13.5732 18.0106 13.2328 18.3462 12.74 18.4184C12.558 18.445 10.7555 18.4561 8.73439 18.4431C5.16215 18.4199 5.05363 18.4147 4.84684 18.2592C4.39394 17.9185 4.32226 17.7387 4.29004 16.8629L4.26021 16.0505L8.98982 16.0704L13.7195 16.0904L13.7426 16.5833ZM8.08495 17.015C8.06098 17.0778 8.0535 17.1925 8.06822 17.2697C8.09235 17.3958 8.189 17.4101 9.01895 17.4101H9.94278V17.1772V16.9443L9.03568 16.9224C8.29359 16.9045 8.12063 16.9213 8.08495 17.015Z" fill="white"/>
</svg>
